<?xml version="1.0" encoding="utf-8"?>
<!-- Generator: Adobe Illustrator 22.0.0, SVG Export Plug-In . SVG Version: 6.00 Build 0)  -->
<svg version="1.1" id="Layer_1" xmlns="http://www.w3.org/2000/svg" xmlns:xlink="http://www.w3.org/1999/xlink" x="0px" y="0px"
	 viewBox="0 0 715.7 121.2" style="enable-background:new 0 0 715.7 121.2;" xml:space="preserve">
<style type="text/css">
	.st0{fill:#FFEBD2;}
	.st1{fill:#99E5FF;}
</style>
<title>Artboard 1</title>
<path class="st0" d="M20.5,19.5l13,48.7l16-48.7h15.6l16,48.7l13-48.7h20.5L92.1,94.9h-20L57.3,51.2L42.5,94.9h-20L0,19.5H20.5z"/>
<path class="st0" d="M117.5,57.2c-0.1-5.4,1-10.7,3.1-15.6c4.1-9.7,11.9-17.4,21.7-21.2c10.9-4,22.8-4,33.7,0
	c4.9,1.9,9.4,4.8,13.2,8.5c3.7,3.6,6.6,7.9,8.6,12.7c2.1,4.9,3.2,10.2,3.1,15.6c0.1,5.4-1,10.7-3.1,15.7c-2,4.7-5,9-8.6,12.7
	c-3.8,3.7-8.3,6.5-13.2,8.4c-5.4,2.1-11.1,3.1-16.8,3.1c-5.8,0.1-11.5-1-16.9-3.1c-4.9-1.9-9.4-4.7-13.1-8.4
	C121.6,78.1,117.4,67.9,117.5,57.2z M138,57.2c0,2.9,0.6,5.7,1.7,8.3c1.1,2.5,2.7,4.7,4.6,6.6c1.9,1.9,4.3,3.4,6.8,4.3
	c2.6,1,5.4,1.6,8.2,1.6s5.5-0.5,8.1-1.6c2.5-1,4.8-2.5,6.8-4.3c2-1.9,3.5-4.1,4.6-6.6c2.3-5.3,2.3-11.3,0-16.6
	c-1.1-2.5-2.7-4.7-4.6-6.6c-2-1.9-4.3-3.4-6.8-4.4c-5.2-2-11.1-2-16.3,0c-2.5,1-4.8,2.5-6.8,4.4c-1.9,1.9-3.5,4.1-4.6,6.6
	C138.6,51.5,138,54.3,138,57.2z"/>
<path class="st0" d="M276.1,94.9h-24.4l-18.7-29v29h-19.6V19.5h30.5c3.7-0.1,7.5,0.5,11,1.8c2.9,1.1,5.6,2.8,7.8,5
	c2,2.1,3.6,4.6,4.6,7.4c1,2.9,1.5,5.9,1.5,9c0,5.7-1.4,10.4-4.1,14s-6.9,6-12.2,7.2L276.1,94.9z M233,53.2h3.7
	c3.9,0,6.8-0.8,8.9-2.4c2.1-1.6,3.3-4.2,3.1-6.9c0.2-2.7-1-5.3-3.1-6.9c-2.1-1.6-5-2.4-8.9-2.4H233V53.2z"/>
<path class="st0" d="M284.3,19.5h29c5,0,10,1,14.5,3.1c4.4,2,8.4,4.8,11.8,8.2c3.4,3.5,6.1,7.5,8,12s2.9,9.4,2.9,14.3
	s-1,9.7-2.9,14.2c-1.8,4.5-4.5,8.6-7.9,12.1s-7.4,6.3-11.8,8.3c-4.6,2.1-9.6,3.2-14.6,3.1h-29V19.5z M303.9,78.3h4.5
	c3.1,0.1,6.2-0.5,9.1-1.6c5.1-1.9,9.2-6,11-11.1c2-5.5,2-11.4,0-16.9c-0.9-2.5-2.4-4.8-4.2-6.7c-1.9-1.9-4.2-3.4-6.8-4.4
	c-2.9-1.1-5.9-1.7-9-1.6H304v42.3H303.9z"/>
<path class="st1" d="M452.2,57.2c-0.1-10.6,4.1-20.9,11.7-28.3c3.8-3.7,8.3-6.6,13.2-8.5c10.8-4,22.8-4,33.6,0
	c4.9,1.9,9.4,4.8,13.2,8.5c3.7,3.6,6.7,7.9,8.7,12.6c2.1,5,3.2,10.3,3.1,15.7c0.2,10.7-4.1,20.9-11.8,28.3
	c-3.8,3.7-8.3,6.5-13.2,8.5c-10.8,4-22.8,4-33.6,0c-4.9-1.9-9.4-4.8-13.2-8.5c-3.7-3.6-6.6-7.9-8.6-12.6
	C453.2,67.9,452.2,62.6,452.2,57.2z M472.7,57.2c0,2.9,0.6,5.7,1.7,8.3c1.1,2.5,2.7,4.7,4.6,6.6s4.3,3.4,6.8,4.3
	c5.3,2,11.1,2,16.4,0c2.5-1,4.8-2.5,6.8-4.3c2-1.9,3.5-4.1,4.6-6.6c2.3-5.3,2.3-11.3,0-16.6c-1.1-2.5-2.7-4.7-4.6-6.6
	c-2-1.9-4.3-3.3-6.8-4.3c-5.3-2-11.1-2-16.4,0c-5.1,2-9.2,5.9-11.4,10.9C473.3,51.5,472.7,54.3,472.7,57.2z"/>
<path class="st1" d="M548.1,94.9V19.5h19.6l36.2,46.1V19.5h19.5v75.4h-19.5l-36.2-46.1v46.1H548.1z"/>
<path class="st1" d="M677.3,52.7h38.9c0,4-0.2,7.6-0.5,10.9c-0.3,3.1-0.9,6.2-2,9.1c-1.3,3.8-3.3,7.3-5.7,10.5
	c-2.4,3-5.2,5.6-8.4,7.6c-3.3,2.1-6.9,3.6-10.7,4.7c-4,1.1-8.1,1.6-12.2,1.6c-5.5,0.1-10.9-0.9-16-2.9c-4.7-1.8-8.9-4.6-12.5-8.2
	s-6.3-7.9-8.1-12.6c-2-5.2-2.9-10.7-2.9-16.2s0.9-11,2.9-16.2c1.8-4.7,4.5-9,8.1-12.5c3.6-3.6,7.9-6.3,12.7-8.1
	c5.3-2,10.9-3,16.5-2.9c7.2-0.2,14.4,1.6,20.7,5.1c5.9,3.4,10.6,8.7,14.1,15.8L693.5,46c-1.7-4.1-4-7.1-6.8-8.9
	c-2.8-1.8-6.1-2.7-9.4-2.7c-2.8-0.1-5.5,0.5-8,1.6c-2.4,1.1-4.5,2.7-6.2,4.7c-1.8,2.2-3.1,4.7-4,7.4c-1,3.1-1.5,6.3-1.5,9.6
	c0,3,0.4,6,1.2,8.9c0.8,2.6,2.1,5,3.8,7.1c1.7,2,3.8,3.6,6.2,4.7c2.7,1.1,5.7,1.7,8.6,1.6c1.9,0,3.8-0.2,5.6-0.6
	c1.7-0.4,3.4-1.1,4.8-2.1c1.4-1,2.6-2.3,3.5-3.8c1-1.7,1.6-3.6,1.9-5.6h-16.1V52.7H677.3z"/>
<path class="st0" d="M399.9,27.7c2.7-1.9,6-2.8,9.3-2.7c3.2,0,6.4,0.7,9.3,1.9c3.5,1.4,6.7,3.4,9.6,5.8l11.7-23
	c-5.5-3-11.4-5.3-17.5-6.8c-5.7-1.5-11.6-2.2-17.5-2.3c-5.6-0.1-11.1,0.8-16.3,2.7c-9.2,3.2-16.5,10.3-20.1,19.3
	c-1.9,4.8-2.9,10-2.8,15.2c-0.1,4.8,0.7,9.5,2.6,13.9c1.6,3.5,4,6.6,6.9,9.1c2.2,1.8,4.6,3.4,7.1,4.6l14.5-33.1
	C397.2,30.5,398.4,28.9,399.9,27.7z"/>
<path class="st1" d="M437.8,60.6c-2.7-3.2-6-5.8-9.7-7.8l-15,34.3c-0.6,1.8-1.7,3.4-3.1,4.6c-2.4,2.2-5.9,3.3-10.7,3.3
	c-4.4,0-8.8-1-12.8-2.8c-4.8-2.2-9.2-5.1-13-8.7l-12.6,23.7c11.6,8.3,25.5,12.8,39.8,12.8c6.3,0.1,12.5-0.8,18.5-2.8
	c5.1-1.6,9.8-4.3,13.8-7.8c3.8-3.3,6.7-7.4,8.5-12.1c2-5,3-10.4,2.9-15.8C444.5,73,442.3,66,437.8,60.6z"/>
<path class="st1" d="M395.1,50.9h8.9v2.4h-3.1v18h-2.7v-18H395v-2.4H395.1z"/>
<path class="st0" d="M415.8,61.5c0,3.6-0.4,6.2-1.2,7.6c-0.8,1.5-2.3,2.4-4,2.2c-1.8,0.1-3.4-0.9-4.2-2.5c-0.8-1.6-1.2-4.4-1.2-8.5
	c0-3.6,0.4-6.2,1.2-7.7c0.8-1.5,2.2-2.2,4.1-2.2c1.5-0.1,2.9,0.6,3.8,1.8c0.6,1,1,2.1,1.2,3.3C415.7,57.5,415.9,59.5,415.8,61.5z
	 M413,61.8c0-3.5-0.2-5.9-0.5-7c-0.3-1.2-0.9-1.8-1.9-1.8s-1.8,0.7-1.9,1.6c-0.4,2.1-0.6,4.3-0.5,6.5c-0.1,2.1,0.1,4.1,0.5,6.2
	c0.2,0.9,1,1.6,1.9,1.6s1.7-0.6,1.9-1.5C412.9,65.6,413,63.7,413,61.8L413,61.8z"/>
<g>
	<path class="st1" d="M24,105.1h2.2c0.4,0,0.8,0,1,0c0.3,0,0.6,0.1,1,0.2c0.4,0.1,0.7,0.2,1,0.5c0.2,0.2,0.5,0.5,0.8,0.9
		c0.3,0.4,0.5,0.8,0.7,1.4s0.3,1.2,0.4,2c0.1,0.8,0.2,1.8,0.2,2.8c0,1,0,1.8-0.2,2.6c-0.1,0.8-0.2,1.4-0.4,1.9
		c-0.2,0.5-0.4,0.9-0.7,1.3c-0.3,0.4-0.6,0.6-0.9,0.8c-0.3,0.2-0.7,0.3-1.1,0.4c-0.5,0.1-0.9,0.2-1.3,0.2c-0.4,0-0.9,0-1.5,0H24
		V105.1z M29.1,112.9c0-0.1,0-0.2,0-0.4c0-0.5,0-0.8,0-1.1s0-0.6-0.1-1.1c0-0.5-0.1-0.9-0.2-1.1c-0.1-0.3-0.2-0.6-0.3-1
		c-0.2-0.4-0.3-0.6-0.6-0.8s-0.5-0.3-0.8-0.5c-0.3-0.1-0.7-0.2-1.2-0.1v11.7c0.4,0,0.8,0,1.2-0.1c0.3-0.1,0.6-0.2,0.8-0.4
		c0.2-0.2,0.4-0.4,0.6-0.7s0.3-0.6,0.3-0.8s0.1-0.6,0.2-1s0.1-0.8,0.1-1s0-0.6,0-1.1C29.1,113.1,29.1,113,29.1,112.9z"/>
	<path class="st1" d="M38.4,105.1h5.4v1.7h-3.4v4.7h3v1.7h-3v5.1h3.4v1.7h-5.4V105.1z"/>
	<path class="st1" d="M55,105.4l0,2c-0.6-0.4-1.2-0.6-1.7-0.6c-0.5,0-1,0.2-1.3,0.6c-0.3,0.4-0.5,0.8-0.5,1.4c0,0.6,0.2,1.2,0.6,1.6
		l1.5,1.7c0.8,0.8,1.3,1.5,1.7,2.1c0.3,0.6,0.5,1.4,0.5,2.3c0,1.1-0.3,2-1,2.8c-0.6,0.8-1.5,1.1-2.6,1.1c-0.9,0-1.6-0.2-2.2-0.7v-2
		c0.7,0.5,1.4,0.8,2,0.8c0.6,0,1-0.2,1.3-0.6c0.3-0.4,0.4-0.9,0.4-1.5c0-0.5-0.1-1.1-0.4-1.5c-0.3-0.5-0.6-0.9-1.1-1.3
		s-0.8-0.8-1.2-1.2c-0.4-0.4-0.8-0.9-1.1-1.5c-0.3-0.6-0.4-1.3-0.4-2c0-1.1,0.3-2,0.9-2.8c0.6-0.7,1.4-1.1,2.5-1.1
		C53.8,104.9,54.5,105.1,55,105.4z"/>
	<path class="st1" d="M64.5,105.1v15.1h-2v-15.1H64.5z"/>
	<path class="st1" d="M75.5,112.2h3.7v0.2c0,0.1,0,0.5,0,0.9s0,0.8,0,1c0,0.2,0,0.6,0,1c0,0.5,0,0.8-0.1,1.1c0,0.3-0.1,0.6-0.2,1
		c-0.1,0.4-0.2,0.7-0.3,1s-0.3,0.5-0.5,0.8c-0.2,0.3-0.4,0.5-0.6,0.6s-0.5,0.3-0.8,0.4c-0.3,0.1-0.7,0.2-1.1,0.2
		c-0.6,0-1.1-0.1-1.5-0.3c-0.4-0.2-0.8-0.4-1.1-0.8c-0.3-0.4-0.5-0.8-0.7-1.2s-0.3-1-0.4-1.6c-0.1-0.6-0.2-1.2-0.2-1.8
		c0-0.6,0-1.3,0-2.1c0-0.8,0-1.5,0-2.1s0.1-1.2,0.2-1.8s0.2-1.2,0.4-1.6c0.2-0.4,0.4-0.8,0.7-1.2c0.3-0.4,0.6-0.6,1-0.8
		c0.4-0.2,0.9-0.3,1.5-0.3c1,0,1.8,0.3,2.4,0.8s1,1.3,1.3,2.3l-1.9,0.8c-0.1-0.3-0.1-0.6-0.2-0.8s-0.2-0.4-0.3-0.6
		c-0.1-0.2-0.3-0.4-0.5-0.5c-0.2-0.1-0.5-0.2-0.8-0.2c-0.3,0-0.5,0.1-0.7,0.2c-0.2,0.1-0.4,0.3-0.5,0.6c-0.1,0.3-0.2,0.5-0.3,0.8
		s-0.1,0.7-0.2,1.2s-0.1,1-0.1,1.4c0,0.4,0,1,0,1.7c0,1.3,0,2.3,0.1,3.1c0.1,0.8,0.2,1.4,0.4,1.8c0.2,0.4,0.4,0.6,0.6,0.8
		c0.2,0.1,0.4,0.2,0.6,0.2c0.2,0,0.4,0,0.5,0c0.1,0,0.3-0.1,0.5-0.2c0.2-0.1,0.3-0.3,0.4-0.6c0.1-0.2,0.2-0.6,0.2-1.1
		s0.1-1.1,0.1-1.8V114h-1.7V112.2z"/>
	<path class="st1" d="M87.8,108.6l0.1,1l0.3,5.1v5.5h-2v-15.1h1.9l3.5,11.5l0,0l-0.5-6v-5.4h2v15.1h-1.9L87.8,108.6L87.8,108.6z"/>
	<path class="st0" d="M111.9,105.1v15.1h-2v-15.1H111.9z"/>
	<path class="st1" d="M128.6,105.1h2.2c0.4,0,0.8,0,1,0c0.3,0,0.6,0.1,1,0.2c0.4,0.1,0.7,0.2,1,0.5c0.2,0.2,0.5,0.5,0.8,0.9
		c0.3,0.4,0.5,0.8,0.7,1.4s0.3,1.2,0.4,2c0.1,0.8,0.2,1.8,0.2,2.8c0,1,0,1.8-0.2,2.6c-0.1,0.8-0.2,1.4-0.4,1.9
		c-0.2,0.5-0.4,0.9-0.7,1.3c-0.3,0.4-0.6,0.6-0.9,0.8c-0.3,0.2-0.7,0.3-1.1,0.4c-0.5,0.1-0.9,0.2-1.3,0.2c-0.4,0-0.9,0-1.5,0h-1.4
		V105.1z M133.7,112.9c0-0.1,0-0.2,0-0.4c0-0.5,0-0.8,0-1.1s0-0.6-0.1-1.1c0-0.5-0.1-0.9-0.2-1.1c-0.1-0.3-0.2-0.6-0.3-1
		c-0.2-0.4-0.3-0.6-0.6-0.8s-0.5-0.3-0.8-0.5c-0.3-0.1-0.7-0.2-1.2-0.1v11.7c0.4,0,0.8,0,1.2-0.1c0.3-0.1,0.6-0.2,0.8-0.4
		c0.2-0.2,0.4-0.4,0.6-0.7s0.3-0.6,0.3-0.8s0.1-0.6,0.2-1s0.1-0.8,0.1-1s0-0.6,0-1.1C133.7,113.1,133.7,113,133.7,112.9z"/>
	<path class="st1" d="M143,105.1h5.4v1.7H145v4.7h3v1.7h-3v5.1h3.4v1.7H143V105.1z"/>
	<path class="st1" d="M153.9,105.1h2l1.7,11.3h0l0.1-0.9l0.8-5.1l0.9-5.3h1.9l-3,15.1h-1.6L153.9,105.1z"/>
	<path class="st1" d="M167.8,105.1h5.4v1.7h-3.4v4.7h3v1.7h-3v5.1h3.4v1.7h-5.4V105.1z"/>
	<path class="st1" d="M179.8,105.1h2v13.3h3.4v1.7h-5.4V105.1z"/>
	<path class="st1" d="M193.5,105.2c0.4-0.2,0.9-0.3,1.4-0.3s1,0.1,1.4,0.3c0.4,0.2,0.8,0.4,1,0.7c0.3,0.3,0.5,0.7,0.7,1.2
		c0.2,0.5,0.3,0.9,0.4,1.3c0.1,0.4,0.2,0.9,0.2,1.5c0.1,0.6,0.1,1.1,0.1,1.4s0,0.8,0,1.3s0,1,0,1.3c0,0.3,0,0.8-0.1,1.4
		c-0.1,0.6-0.1,1.1-0.2,1.5c-0.1,0.4-0.2,0.8-0.4,1.3s-0.4,0.9-0.7,1.2c-0.3,0.3-0.6,0.5-1,0.7c-0.4,0.2-0.9,0.3-1.4,0.3
		s-1-0.1-1.4-0.3c-0.4-0.2-0.8-0.4-1-0.7c-0.3-0.3-0.5-0.7-0.7-1.2s-0.3-0.9-0.4-1.3c-0.1-0.4-0.2-0.9-0.2-1.5
		c-0.1-0.6-0.1-1.1-0.1-1.4c0-0.3,0-0.8,0-1.3s0-1,0-1.3s0-0.8,0.1-1.4c0.1-0.6,0.1-1.1,0.2-1.5c0.1-0.4,0.2-0.8,0.4-1.3
		c0.2-0.5,0.4-0.9,0.7-1.2C192.8,105.7,193.1,105.4,193.5,105.2z M196.4,108.3c-0.2-1-0.7-1.5-1.4-1.5c-0.7,0-1.2,0.5-1.4,1.5
		c-0.2,1-0.4,2.5-0.4,4.3s0.1,3.3,0.4,4.3c0.2,1,0.7,1.5,1.4,1.5c0.7,0,1.2-0.5,1.4-1.5c0.2-1,0.4-2.5,0.4-4.3
		S196.7,109.3,196.4,108.3z"/>
	<path class="st1" d="M208,120.2h-2v-15.1h2.4c0.4,0,0.8,0,1.1,0c0.3,0,0.6,0.1,1,0.3c0.4,0.2,0.7,0.4,0.9,0.6s0.4,0.7,0.6,1.2
		c0.2,0.5,0.3,1.2,0.3,1.9c0,1.6-0.3,2.7-1,3.4c-0.7,0.7-1.8,1-3.3,1V120.2z M208.3,106.8H208v5c0.8,0.1,1.4-0.1,1.7-0.5
		c0.3-0.4,0.5-1.1,0.5-2C210.2,107.7,209.6,106.8,208.3,106.8z"/>
	<path class="st0" d="M230,105.1v15.1h-2v-15.1H230z"/>
	<path class="st1" d="M252.5,105.4v1.8c-0.5-0.3-0.9-0.4-1.3-0.4c-0.4,0-0.8,0.1-1.2,0.3c-0.3,0.2-0.6,0.5-0.8,0.9s-0.4,0.8-0.5,1.1
		c-0.1,0.4-0.2,0.8-0.2,1.3c0,0.5-0.1,0.9-0.1,1.2c0,0.3,0,0.7,0,1.1c0,3.8,1,5.8,2.9,5.8c0.4,0,0.8-0.1,1.2-0.3v1.8
		c-0.4,0.3-1,0.4-1.6,0.4c-3.1,0-4.6-2.5-4.6-7.5c0-5.3,1.5-8,4.5-8C251.4,104.9,252,105.1,252.5,105.4z"/>
	<path class="st1" d="M259.1,120.2v-15.1h2.4c0.4,0,0.7,0,1,0c0.3,0,0.6,0.1,1,0.2c0.4,0.1,0.7,0.3,0.9,0.6c0.2,0.3,0.4,0.6,0.6,1.1
		c0.2,0.5,0.3,1.1,0.3,1.9c0,0.5-0.1,1.1-0.2,1.6c-0.1,0.5-0.3,1-0.7,1.5s-0.8,0.7-1.3,0.8l2.8,7.3h-2.1l-2.7-7.4h0v7.4H259.1z
		 M261.1,111.8c1.3,0.1,2-0.7,2-2.4c0-0.9-0.1-1.5-0.3-2c-0.2-0.4-0.7-0.7-1.4-0.6h-0.3V111.8z"/>
	<path class="st1" d="M272.5,105.1h5.4v1.7h-3.4v4.7h3v1.7h-3v5.1h3.4v1.7h-5.4V105.1z"/>
	<path class="st1" d="M286.6,105.1h1.6l3.2,15.1h-2l-0.6-2.9h-3l-0.6,2.9h-2L286.6,105.1z M288.6,115.7l-0.4-2.2l-0.8-5.5h0
		l-1.2,7.7H288.6z"/>
	<path class="st1" d="M295.8,105.1h6.6v1.7h-2.3v13.3h-2v-13.3h-2.4V105.1z"/>
	<path class="st1" d="M308.6,105.1h5.4v1.7h-3.4v4.7h3v1.7h-3v5.1h3.4v1.7h-5.4V105.1z"/>
</g>
</svg>
