<?xml version="1.0" encoding="utf-8"?>
<!-- Generator: Adobe Illustrator 22.0.0, SVG Export Plug-In . SVG Version: 6.00 Build 0)  -->
<svg version="1.1" id="Layer_1" xmlns="http://www.w3.org/2000/svg" xmlns:xlink="http://www.w3.org/1999/xlink" x="0px" y="0px"
	 viewBox="0 0 715.7 120.5" style="enable-background:new 0 0 715.7 120.5;" xml:space="preserve">
<style type="text/css">
	.st0{fill:#D4C5AB;}
	.st1{fill:#7DB4D3;}
	.st2{display:none;}
</style>
<g>
	<g>
		<path class="st0" d="M20.5,19.5l13,48.7l16-48.7h15.6l16,48.7l13-48.7h20.5L92.1,94.9h-20L57.3,51.2L42.5,94.9h-20L0,19.5H20.5z"
			/>
		<path class="st0" d="M117.5,57.2c0-5.6,1-10.8,3.1-15.6c2.1-4.8,4.9-9,8.6-12.7c3.7-3.6,8-6.4,13.1-8.5c5.1-2,10.7-3,16.9-3
			c6.1,0,11.7,1,16.8,3c5.1,2,9.5,4.9,13.2,8.5c3.7,3.6,6.6,7.8,8.6,12.7c2.1,4.8,3.1,10,3.1,15.6c0,5.6-1,10.8-3.1,15.7
			c-2.1,4.8-4.9,9-8.6,12.7c-3.7,3.6-8.1,6.4-13.2,8.4c-5.1,2-10.7,3.1-16.8,3.1c-6.1,0-11.8-1-16.9-3.1c-5.1-2-9.5-4.8-13.1-8.4
			c-3.7-3.6-6.5-7.8-8.6-12.7C118.5,68.1,117.5,62.8,117.5,57.2z M138,57.2c0,3,0.6,5.8,1.7,8.3c1.1,2.5,2.7,4.7,4.6,6.6
			c1.9,1.9,4.2,3.3,6.8,4.3c2.6,1,5.3,1.6,8.2,1.6c2.9,0,5.6-0.5,8.1-1.6c2.6-1,4.8-2.5,6.8-4.3c2-1.9,3.5-4.1,4.6-6.6
			c1.1-2.5,1.7-5.3,1.7-8.3s-0.6-5.8-1.7-8.3c-1.1-2.5-2.7-4.7-4.6-6.6c-2-1.9-4.2-3.3-6.8-4.4c-2.6-1-5.3-1.5-8.1-1.5
			c-2.9,0-5.6,0.5-8.2,1.5c-2.6,1-4.8,2.5-6.8,4.4c-1.9,1.9-3.5,4.1-4.6,6.6C138.6,51.5,138,54.2,138,57.2z"/>
		<path class="st0" d="M276.1,94.9h-24.4l-18.7-29v29h-19.6V19.5h30.5c4.2,0,7.9,0.6,11,1.8c3.1,1.2,5.7,2.9,7.8,5
			c2,2.1,3.6,4.6,4.6,7.4c1,2.8,1.5,5.8,1.5,9c0,5.7-1.4,10.4-4.1,14c-2.8,3.6-6.9,6-12.2,7.2L276.1,94.9z M233,53.2h3.7
			c3.9,0,6.8-0.8,8.9-2.4c2.1-1.6,3.1-3.9,3.1-6.9s-1-5.3-3.1-6.9c-2.1-1.6-5-2.4-8.9-2.4H233V53.2z"/>
		<path class="st0" d="M284.3,19.5h29c5.1,0,10,1,14.5,3.1c4.5,2.1,8.4,4.8,11.8,8.2c3.4,3.4,6,7.4,8,12c1.9,4.6,2.9,9.3,2.9,14.3
			c0,4.9-1,9.7-2.9,14.2c-1.9,4.6-4.5,8.6-7.9,12.1c-3.4,3.5-7.3,6.2-11.8,8.3c-4.5,2.1-9.4,3.1-14.6,3.1h-29V19.5z M303.9,78.3h4.5
			c3.4,0,6.4-0.5,9.1-1.6c2.7-1.1,4.9-2.5,6.8-4.4c1.8-1.9,3.2-4.1,4.2-6.7c1-2.6,1.5-5.4,1.5-8.5c0-3-0.5-5.8-1.5-8.4
			c-1-2.6-2.4-4.8-4.2-6.7c-1.8-1.9-4.1-3.3-6.8-4.4c-2.7-1.1-5.7-1.6-9-1.6h-4.5V78.3z"/>
	</g>
	<g>
		<path class="st1" d="M452.2,57.2c0-5.6,1-10.8,3.1-15.7c2.1-4.8,4.9-9,8.6-12.6c3.7-3.6,8-6.4,13.2-8.5c5.1-2,10.7-3,16.8-3
			c6.1,0,11.7,1,16.8,3c5.1,2,9.5,4.8,13.2,8.5c3.7,3.6,6.6,7.8,8.7,12.6c2.1,4.8,3.1,10.1,3.1,15.7s-1,10.8-3.1,15.7
			c-2.1,4.8-5,9-8.7,12.6c-3.7,3.6-8.1,6.4-13.2,8.5c-5.1,2-10.7,3-16.8,3c-6.1,0-11.8-1-16.8-3c-5.1-2-9.5-4.8-13.2-8.5
			c-3.7-3.6-6.5-7.8-8.6-12.6C453.3,68.1,452.2,62.8,452.2,57.2z M472.7,57.2c0,3,0.6,5.8,1.7,8.3c1.1,2.5,2.7,4.7,4.6,6.6
			c1.9,1.9,4.2,3.3,6.8,4.3c2.6,1,5.3,1.5,8.2,1.5c2.9,0,5.6-0.5,8.2-1.5c2.6-1,4.8-2.5,6.8-4.3c2-1.9,3.5-4.1,4.6-6.6
			c1.1-2.5,1.7-5.3,1.7-8.3s-0.6-5.8-1.7-8.3c-1.1-2.5-2.7-4.7-4.6-6.6c-2-1.9-4.2-3.3-6.8-4.3c-2.6-1-5.3-1.5-8.2-1.5
			c-2.9,0-5.6,0.5-8.2,1.5c-2.6,1-4.8,2.5-6.8,4.3c-1.9,1.9-3.5,4.1-4.6,6.6C473.3,51.5,472.7,54.2,472.7,57.2z"/>
		<path class="st1" d="M548.1,94.9V19.5h19.6l36.2,46.1V19.5h19.5v75.4h-19.5l-36.2-46.1v46.1H548.1z"/>
		<path class="st1" d="M677.3,52.7h38.9c0,4-0.2,7.6-0.5,10.9c-0.3,3.3-1,6.3-2,9.1c-1.4,3.9-3.3,7.4-5.7,10.5
			c-2.4,3-5.2,5.6-8.4,7.6c-3.2,2-6.8,3.6-10.7,4.7c-3.9,1.1-7.9,1.6-12.2,1.6c-5.9,0-11.2-1-16-2.9c-4.8-1.9-9-4.7-12.5-8.2
			c-3.5-3.5-6.2-7.7-8.1-12.6c-1.9-4.9-2.9-10.3-2.9-16.2c0-5.9,1-11.2,2.9-16.2c1.9-4.9,4.6-9.1,8.1-12.5c3.5-3.5,7.7-6.2,12.7-8.1
			c4.9-1.9,10.4-2.9,16.5-2.9c7.9,0,14.8,1.7,20.7,5.1c5.9,3.4,10.6,8.7,14.1,15.8L693.5,46c-1.7-4.1-4-7.1-6.8-8.9
			c-2.8-1.8-5.9-2.7-9.4-2.7c-2.9,0-5.6,0.5-8,1.6c-2.4,1.1-4.5,2.7-6.2,4.7c-1.7,2-3,4.5-4,7.4c-1,2.9-1.5,6.1-1.5,9.6
			c0,3.2,0.4,6.2,1.2,8.9c0.8,2.7,2.1,5.1,3.8,7.1c1.7,2,3.7,3.5,6.2,4.7c2.5,1.1,5.3,1.6,8.6,1.6c1.9,0,3.8-0.2,5.6-0.6
			s3.4-1.1,4.8-2.1c1.4-1,2.6-2.2,3.5-3.8c0.9-1.5,1.6-3.4,1.9-5.6h-16.1V52.7z"/>
	</g>
	
		<rect x="386.2" y="38.2" transform="matrix(0.9163 0.4006 -0.4006 0.9163 58.0783 -157.0388)" class="st2" width="37" height="44.4"/>
	<g>
		<path class="st0" d="M399.9,27.7c2.4-1.8,5.5-2.7,9.3-2.7c3,0,6.1,0.6,9.3,1.9c3.2,1.3,6.4,3.2,9.6,5.8l11.7-23
			c-5.6-3-11.5-5.3-17.5-6.8c-6.1-1.5-12-2.3-17.5-2.3c-6,0-11.4,0.9-16.3,2.7c-4.9,1.8-9,4.3-12.3,7.6c-3.4,3.3-6,7.2-7.8,11.7
			c-1.9,4.6-2.8,9.6-2.8,15.2c0,5.6,0.9,10.2,2.6,13.9c1.7,3.7,4.1,6.7,6.9,9.1c2.1,1.8,4.5,3.3,7.1,4.6l14.5-33.1
			C397.2,30.5,398.3,29,399.9,27.7z"/>
		<path class="st1" d="M437.8,60.6c-2.4-2.9-5.7-5.5-9.7-7.8l-15,34.3c-0.5,1.7-1.6,3.2-3.1,4.6c-2.4,2.2-5.9,3.3-10.7,3.3
			c-4.2,0-8.5-0.9-12.8-2.8c-4.3-1.9-8.7-4.8-13-8.7l-12.6,23.7c12.2,8.5,25.4,12.8,39.8,12.8c6.9,0,13.1-0.9,18.5-2.8
			c5.4-1.8,10.1-4.4,13.8-7.8c3.8-3.3,6.6-7.4,8.5-12.1c2-4.7,2.9-9.9,2.9-15.8C444.5,73,442.3,66,437.8,60.6z"/>
	</g>
	<g>
		<path class="st1" d="M392,47.9h11.6V51h-4v23.3h-3.5V51H392V47.9z"/>
		<path class="st0" d="M418.9,61.7c0,4.7-0.5,8-1.6,9.9c-1,2-2.8,2.9-5.2,2.9c-2.6,0-4.4-1.1-5.4-3.2c-1-2.1-1.6-5.7-1.6-11
			c0-4.7,0.5-8,1.5-10c1-2,2.8-2.9,5.3-2.9c2.2,0,3.9,0.8,4.9,2.3c0.7,1,1.2,2.5,1.5,4.3C418.8,55.9,418.9,58.4,418.9,61.7z
			 M415.2,62.1c0-4.6-0.2-7.6-0.6-9.1c-0.4-1.5-1.2-2.3-2.5-2.3s-2.1,0.7-2.5,2.1c-0.4,1.4-0.6,4.2-0.6,8.4c0,3.9,0.2,6.5,0.6,8
			c0.4,1.4,1.3,2.1,2.5,2.1c1.2,0,2-0.7,2.5-2C415,68,415.2,65.6,415.2,62.1z"/>
	</g>
</g>
</svg>
