<svg id="Layer_1" data-name="Layer 1" xmlns="http://www.w3.org/2000/svg" viewBox="0 0 715.7 120.5"><defs><style>.cls-1{fill:#ffebd2;}.cls-2{fill:#99e5ff;}</style></defs><title>Artboard 1</title><path class="cls-1" d="M20.5,19.5l13,48.7,16-48.7H65.1l16,48.7,13-48.7h20.5L92.1,94.9h-20L57.3,51.2,42.5,94.9h-20L0,19.5Z"/><path class="cls-1" d="M117.5,57.2a38.46,38.46,0,0,1,3.1-15.6,39,39,0,0,1,21.7-21.2,48.82,48.82,0,0,1,33.7,0,39.45,39.45,0,0,1,13.2,8.5,37.1,37.1,0,0,1,8.6,12.7,38.46,38.46,0,0,1,3.1,15.6,39.28,39.28,0,0,1-3.1,15.7,40.75,40.75,0,0,1-8.6,12.7A39.21,39.21,0,0,1,176,94a45.65,45.65,0,0,1-16.8,3.1A44.21,44.21,0,0,1,142.3,94a37.82,37.82,0,0,1-13.1-8.4,39.41,39.41,0,0,1-11.7-28.4Zm20.5,0a20.52,20.52,0,0,0,1.7,8.3,21.77,21.77,0,0,0,4.6,6.6,19.22,19.22,0,0,0,6.8,4.3,22.59,22.59,0,0,0,8.2,1.6,19.86,19.86,0,0,0,8.1-1.6,21.83,21.83,0,0,0,6.8-4.3,20.15,20.15,0,0,0,4.6-6.6,21.11,21.11,0,0,0,0-16.6,21.77,21.77,0,0,0-4.6-6.6,22.11,22.11,0,0,0-6.8-4.4,22.89,22.89,0,0,0-16.3,0,20.42,20.42,0,0,0-6.8,4.4,21.77,21.77,0,0,0-4.6,6.6A20.88,20.88,0,0,0,138,57.2Z"/><path class="cls-1" d="M276.1,94.9H251.7L233,65.9v29H213.4V19.5h30.5a30.56,30.56,0,0,1,11,1.8,22.28,22.28,0,0,1,7.8,5,21,21,0,0,1,4.6,7.4,26.56,26.56,0,0,1,1.5,9c0,5.7-1.4,10.4-4.1,14s-6.9,6-12.2,7.2ZM233,53.2h3.7c3.9,0,6.8-.8,8.9-2.4a8.12,8.12,0,0,0,3.1-6.9,8.12,8.12,0,0,0-3.1-6.9c-2.1-1.6-5-2.4-8.9-2.4H233Z"/><path class="cls-1" d="M284.3,19.5h29a34,34,0,0,1,14.5,3.1,40.91,40.91,0,0,1,11.8,8.2,38.21,38.21,0,0,1,8,12,36.91,36.91,0,0,1,2.9,14.3,36.43,36.43,0,0,1-2.9,14.2,37.82,37.82,0,0,1-7.9,12.1,39.35,39.35,0,0,1-11.8,8.3,34.17,34.17,0,0,1-14.6,3.1h-29Zm19.6,58.8h4.5a23.81,23.81,0,0,0,9.1-1.6,18.48,18.48,0,0,0,11-11.1,24.55,24.55,0,0,0,0-16.9,20,20,0,0,0-4.2-6.7,19,19,0,0,0-6.8-4.4,23.64,23.64,0,0,0-9-1.6H304V78.3Z"/><path class="cls-2" d="M452.2,57.2a39,39,0,0,1,11.7-28.3,40,40,0,0,1,13.2-8.5,48.54,48.54,0,0,1,33.6,0,38,38,0,0,1,13.2,8.5,39.48,39.48,0,0,1,8.7,12.6,38.94,38.94,0,0,1,3.1,15.7,38.52,38.52,0,0,1-11.8,28.3A41.06,41.06,0,0,1,510.7,94a48.54,48.54,0,0,1-33.6,0,38,38,0,0,1-13.2-8.5,39.2,39.2,0,0,1-8.6-12.6A40.71,40.71,0,0,1,452.2,57.2Zm20.5,0a20.52,20.52,0,0,0,1.7,8.3,21.77,21.77,0,0,0,4.6,6.6,19.22,19.22,0,0,0,6.8,4.3,23.16,23.16,0,0,0,16.4,0,21.83,21.83,0,0,0,6.8-4.3,20.15,20.15,0,0,0,4.6-6.6,21.11,21.11,0,0,0,0-16.6,21.77,21.77,0,0,0-4.6-6.6,20.16,20.16,0,0,0-6.8-4.3,23.16,23.16,0,0,0-16.4,0,20.34,20.34,0,0,0-11.4,10.9A20.88,20.88,0,0,0,472.7,57.2Z"/><path class="cls-2" d="M548.1,94.9V19.5h19.6l36.2,46.1V19.5h19.5V94.9H603.9L567.7,48.8V94.9Z"/><path class="cls-2" d="M677.3,52.7h38.9c0,4-.2,7.6-.5,10.9a36.7,36.7,0,0,1-2,9.1A38,38,0,0,1,708,83.2a33.7,33.7,0,0,1-8.4,7.6,41.38,41.38,0,0,1-10.7,4.7,44.37,44.37,0,0,1-12.2,1.6,43,43,0,0,1-16-2.9A36.7,36.7,0,0,1,648.2,86a36,36,0,0,1-8.1-12.6,44.46,44.46,0,0,1-2.9-16.2A44.85,44.85,0,0,1,640.1,41a34.65,34.65,0,0,1,8.1-12.5,35.48,35.48,0,0,1,12.7-8.1,45.32,45.32,0,0,1,16.5-2.9,40.73,40.73,0,0,1,20.7,5.1c5.9,3.4,10.6,8.7,14.1,15.8L693.5,46c-1.7-4.1-4-7.1-6.8-8.9a16.94,16.94,0,0,0-9.4-2.7,19.06,19.06,0,0,0-8,1.6,17.91,17.91,0,0,0-6.2,4.7,22.76,22.76,0,0,0-4,7.4,29.29,29.29,0,0,0-1.5,9.6,31.4,31.4,0,0,0,1.2,8.9,19.44,19.44,0,0,0,3.8,7.1,18.21,18.21,0,0,0,6.2,4.7,21,21,0,0,0,8.6,1.6,26,26,0,0,0,5.6-.6,13,13,0,0,0,4.8-2.1,11.63,11.63,0,0,0,3.5-3.8,14.8,14.8,0,0,0,1.9-5.6H677.1V52.7Z"/><path class="cls-1" d="M399.9,27.7a15.09,15.09,0,0,1,9.3-2.7,24.55,24.55,0,0,1,9.3,1.9,37.82,37.82,0,0,1,9.6,5.8l11.7-23a76.43,76.43,0,0,0-17.5-6.8A73.88,73.88,0,0,0,404.8.6a46.84,46.84,0,0,0-16.3,2.7,33.47,33.47,0,0,0-20.1,19.3,39.2,39.2,0,0,0-2.8,15.2,33.15,33.15,0,0,0,2.6,13.9,26.45,26.45,0,0,0,6.9,9.1,34.62,34.62,0,0,0,7.1,4.6l14.5-33.1A9,9,0,0,1,399.9,27.7Z"/><path class="cls-2" d="M437.8,60.6a35.31,35.31,0,0,0-9.7-7.8l-15,34.3a10.46,10.46,0,0,1-3.1,4.6c-2.4,2.2-5.9,3.3-10.7,3.3a31.51,31.51,0,0,1-12.8-2.8,49.25,49.25,0,0,1-13-8.7l-12.6,23.7A68.11,68.11,0,0,0,400.7,120a55.76,55.76,0,0,0,18.5-2.8,38,38,0,0,0,13.8-7.8,31.33,31.33,0,0,0,8.5-12.1,39.74,39.74,0,0,0,2.9-15.8C444.5,73,442.3,66,437.8,60.6Z"/><path class="cls-2" d="M392,47.9h11.6V51h-4V74.3h-3.5V51H392Z"/><path class="cls-1" d="M418.9,61.7c0,4.7-.5,8-1.6,9.9a5.32,5.32,0,0,1-5.2,2.9,5.49,5.49,0,0,1-5.4-3.2c-1-2.1-1.6-5.7-1.6-11,0-4.7.5-8,1.5-10s2.8-2.9,5.3-2.9a5.56,5.56,0,0,1,4.9,2.3,10.79,10.79,0,0,1,1.5,4.3A32.29,32.29,0,0,1,418.9,61.7Zm-3.7.4c0-4.6-.2-7.6-.6-9.1s-1.2-2.3-2.5-2.3a2.46,2.46,0,0,0-2.5,2.1,37.23,37.23,0,0,0-.6,8.4,35.4,35.4,0,0,0,.6,8,2.53,2.53,0,0,0,2.5,2.1,2.62,2.62,0,0,0,2.5-2A28.55,28.55,0,0,0,415.2,62.1Z"/></svg>