<?xml version="1.0" encoding="utf-8"?>
<!-- Generator: Adobe Illustrator 22.0.0, SVG Export Plug-In . SVG Version: 6.00 Build 0)  -->
<svg version="1.1" id="Layer_1" xmlns="http://www.w3.org/2000/svg" xmlns:xlink="http://www.w3.org/1999/xlink" x="0px" y="0px"
	 viewBox="0 0 715.7 120.5" style="enable-background:new 0 0 715.7 120.5;" xml:space="preserve">
<style type="text/css">
	.st0{fill:#FFEBD2;}
	.st1{fill:#99E5FF;}
</style>
<title>Artboard 1</title>
<path class="st0" d="M20.5,19.5l13,48.7l16-48.7h15.6l16,48.7l13-48.7h20.5L92.1,94.9h-20L57.3,51.2L42.5,94.9h-20L0,19.5H20.5z"/>
<path class="st0" d="M117.5,57.2c-0.1-5.4,1-10.7,3.1-15.6c4.1-9.7,11.9-17.4,21.7-21.2c10.9-4,22.8-4,33.7,0
	c4.9,1.9,9.4,4.8,13.2,8.5c3.7,3.6,6.6,7.9,8.6,12.7c2.1,4.9,3.2,10.2,3.1,15.6c0.1,5.4-1,10.7-3.1,15.7c-2,4.7-5,9-8.6,12.7
	c-3.8,3.7-8.3,6.5-13.2,8.4c-5.4,2.1-11.1,3.1-16.8,3.1c-5.8,0.1-11.5-1-16.9-3.1c-4.9-1.9-9.4-4.7-13.1-8.4
	C121.6,78.1,117.4,67.9,117.5,57.2z M138,57.2c0,2.9,0.6,5.7,1.7,8.3c1.1,2.5,2.7,4.7,4.6,6.6c1.9,1.9,4.3,3.4,6.8,4.3
	c2.6,1,5.4,1.6,8.2,1.6c2.8,0,5.5-0.5,8.1-1.6c2.5-1,4.8-2.5,6.8-4.3c2-1.9,3.5-4.1,4.6-6.6c2.3-5.3,2.3-11.3,0-16.6
	c-1.1-2.5-2.7-4.7-4.6-6.6c-2-1.9-4.3-3.4-6.8-4.4c-5.2-2-11.1-2-16.3,0c-2.5,1-4.8,2.5-6.8,4.4c-1.9,1.9-3.5,4.1-4.6,6.6
	C138.6,51.5,138,54.3,138,57.2z"/>
<path class="st0" d="M276.1,94.9h-24.4l-18.7-29v29h-19.6V19.5h30.5c3.7-0.1,7.5,0.5,11,1.8c2.9,1.1,5.6,2.8,7.8,5
	c2,2.1,3.6,4.6,4.6,7.4c1,2.9,1.5,5.9,1.5,9c0,5.7-1.4,10.4-4.1,14s-6.9,6-12.2,7.2L276.1,94.9z M233,53.2h3.7
	c3.9,0,6.8-0.8,8.9-2.4c2.1-1.6,3.3-4.2,3.1-6.9c0.2-2.7-1-5.3-3.1-6.9c-2.1-1.6-5-2.4-8.9-2.4H233V53.2z"/>
<path class="st0" d="M284.3,19.5h29c5,0,10,1,14.5,3.1c4.4,2,8.4,4.8,11.8,8.2c3.4,3.5,6.1,7.5,8,12c1.9,4.5,2.9,9.4,2.9,14.3
	c0,4.9-1,9.7-2.9,14.2c-1.8,4.5-4.5,8.6-7.9,12.1c-3.4,3.5-7.4,6.3-11.8,8.3c-4.6,2.1-9.6,3.2-14.6,3.1h-29V19.5z M303.9,78.3h4.5
	c3.1,0.1,6.2-0.5,9.1-1.6c5.1-1.9,9.2-6,11-11.1c2-5.5,2-11.4,0-16.9c-0.9-2.5-2.4-4.8-4.2-6.7c-1.9-1.9-4.2-3.4-6.8-4.4
	c-2.9-1.1-5.9-1.7-9-1.6H304v42.3H303.9z"/>
<path class="st1" d="M452.2,57.2c-0.1-10.6,4.1-20.9,11.7-28.3c3.8-3.7,8.3-6.6,13.2-8.5c10.8-4,22.8-4,33.6,0
	c4.9,1.9,9.4,4.8,13.2,8.5c3.7,3.6,6.7,7.9,8.7,12.6c2.1,5,3.2,10.3,3.1,15.7c0.2,10.7-4.1,20.9-11.8,28.3
	c-3.8,3.7-8.3,6.5-13.2,8.5c-10.8,4-22.8,4-33.6,0c-4.9-1.9-9.4-4.8-13.2-8.5c-3.7-3.6-6.6-7.9-8.6-12.6
	C453.2,67.9,452.2,62.6,452.2,57.2z M472.7,57.2c0,2.9,0.6,5.7,1.7,8.3c1.1,2.5,2.7,4.7,4.6,6.6c1.9,1.9,4.3,3.4,6.8,4.3
	c5.3,2,11.1,2,16.4,0c2.5-1,4.8-2.5,6.8-4.3c2-1.9,3.5-4.1,4.6-6.6c2.3-5.3,2.3-11.3,0-16.6c-1.1-2.5-2.7-4.7-4.6-6.6
	c-2-1.9-4.3-3.3-6.8-4.3c-5.3-2-11.1-2-16.4,0c-5.1,2-9.2,5.9-11.4,10.9C473.3,51.5,472.7,54.3,472.7,57.2z"/>
<path class="st1" d="M548.1,94.9V19.5h19.6l36.2,46.1V19.5h19.5v75.4h-19.5l-36.2-46.1v46.1H548.1z"/>
<path class="st1" d="M677.3,52.7h38.9c0,4-0.2,7.6-0.5,10.9c-0.3,3.1-0.9,6.2-2,9.1c-1.3,3.8-3.3,7.3-5.7,10.5
	c-2.4,3-5.2,5.6-8.4,7.6c-3.3,2.1-6.9,3.6-10.7,4.7c-4,1.1-8.1,1.6-12.2,1.6c-5.5,0.1-10.9-0.9-16-2.9c-4.7-1.8-8.9-4.6-12.5-8.2
	c-3.6-3.6-6.3-7.9-8.1-12.6c-2-5.2-2.9-10.7-2.9-16.2c0-5.5,0.9-11,2.9-16.2c1.8-4.7,4.5-9,8.1-12.5c3.6-3.6,7.9-6.3,12.7-8.1
	c5.3-2,10.9-3,16.5-2.9c7.2-0.2,14.4,1.6,20.7,5.1c5.9,3.4,10.6,8.7,14.1,15.8L693.5,46c-1.7-4.1-4-7.1-6.8-8.9
	c-2.8-1.8-6.1-2.7-9.4-2.7c-2.8-0.1-5.5,0.5-8,1.6c-2.4,1.1-4.5,2.7-6.2,4.7c-1.8,2.2-3.1,4.7-4,7.4c-1,3.1-1.5,6.3-1.5,9.6
	c0,3,0.4,6,1.2,8.9c0.8,2.6,2.1,5,3.8,7.1c1.7,2,3.8,3.6,6.2,4.7c2.7,1.1,5.7,1.7,8.6,1.6c1.9,0,3.8-0.2,5.6-0.6
	c1.7-0.4,3.4-1.1,4.8-2.1c1.4-1,2.6-2.3,3.5-3.8c1-1.7,1.6-3.6,1.9-5.6h-16.1V52.7H677.3z"/>
<path class="st0" d="M399.9,27.7c2.7-1.9,6-2.8,9.3-2.7c3.2,0,6.4,0.7,9.3,1.9c3.5,1.4,6.7,3.4,9.6,5.8l11.7-23
	c-5.5-3-11.4-5.3-17.5-6.8c-5.7-1.5-11.6-2.2-17.5-2.3c-5.6-0.1-11.1,0.8-16.3,2.7c-9.2,3.2-16.5,10.3-20.1,19.3
	c-1.9,4.8-2.9,10-2.8,15.2c-0.1,4.8,0.7,9.5,2.6,13.9c1.6,3.5,4,6.6,6.9,9.1c2.2,1.8,4.6,3.4,7.1,4.6l14.5-33.1
	C397.2,30.5,398.4,28.9,399.9,27.7z"/>
<path class="st1" d="M437.8,60.6c-2.7-3.2-6-5.8-9.7-7.8l-15,34.3c-0.6,1.8-1.7,3.4-3.1,4.6c-2.4,2.2-5.9,3.3-10.7,3.3
	c-4.4,0-8.8-1-12.8-2.8c-4.8-2.2-9.2-5.1-13-8.7l-12.6,23.7c11.6,8.3,25.5,12.8,39.8,12.8c6.3,0.1,12.5-0.8,18.5-2.8
	c5.1-1.6,9.8-4.3,13.8-7.8c3.8-3.3,6.7-7.4,8.5-12.1c2-5,3-10.4,2.9-15.8C444.5,73,442.3,66,437.8,60.6z"/>
<path class="st1" d="M396.2,52h8v2.1h-2.8v16H399v-16h-2.8V52z"/>
<path class="st0" d="M414.7,61.5c0,3.2-0.3,5.5-1.1,6.8c-0.7,1.3-2.1,2.1-3.6,2c-1.6,0.1-3.1-0.8-3.7-2.2c-0.7-1.4-1.1-3.9-1.1-7.6
	c0-3.2,0.3-5.5,1-6.9c0.7-1.4,1.9-2,3.6-2c1.3-0.1,2.6,0.5,3.4,1.6c0.6,0.9,0.9,1.9,1,3C414.6,57.9,414.8,59.7,414.7,61.5z
	 M412.2,61.7c0-3.2-0.1-5.2-0.4-6.3s-0.8-1.6-1.7-1.6c-0.9,0-1.6,0.6-1.7,1.4c-0.4,1.9-0.5,3.8-0.4,5.8c-0.1,1.8,0.1,3.7,0.4,5.5
	c0.1,0.8,0.9,1.4,1.7,1.4c0.8,0,1.5-0.6,1.7-1.4C412.1,65.1,412.2,63.4,412.2,61.7L412.2,61.7z"/>
</svg>
