<svg width="433" height="55" viewBox="0 0 433 55" fill="none" xmlns="http://www.w3.org/2000/svg">
<g clip-path="url(#clip0)">
<path d="M31.5265 49.7915C31.5265 49.6835 31.5265 49.5755 31.6344 49.5755C32.2821 47.4165 31.3106 45.1497 30.1231 43.3145C25.3734 36.0819 16.1977 32.8434 12.2036 25.1791C10.3685 21.6167 11.5559 17.4068 14.3626 14.6001C16.1977 12.8729 19.5441 11.0377 22.1349 11.7934C24.9416 12.6569 24.7257 15.6796 24.9416 18.0544C25.1575 20.9691 26.8847 23.7758 29.9072 24.4235C32.1742 24.8553 34.657 23.9917 35.9524 22.1566C36.708 21.185 37.0319 19.9976 37.3557 18.9181C38.2193 15.7876 38.5432 12.4412 38.4352 9.20268C38.3273 6.8278 37.7875 4.23692 36.0603 2.61769C33.7934 0.45871 30.1231 0.242838 27.1006 0.350787C22.8906 0.458736 18.5726 1.75412 14.7944 3.58926C4.75513 8.44696 -0.318473 15.4637 0.113323 23.4519C0.43717 29.605 4.64718 35.5421 8.10155 40.2919C10.1526 43.0986 12.4195 45.9052 14.7944 48.496C18.6805 52.814 23.1065 57.0241 29.1516 52.922C30.1231 52.1664 31.0947 51.0869 31.5265 49.7915Z" fill="#0B364E"/>
<path d="M60.8886 3.69716C60.2409 3.48126 59.5932 3.37342 58.9455 3.26547C53.764 2.72572 49.8778 5.85614 48.2586 10.7138C47.5029 13.1967 46.8552 15.8955 47.1791 18.4862C47.395 20.6452 48.9063 24.3154 51.497 24.6393C52.2527 24.7472 52.9004 24.4234 53.5481 23.9916C56.6786 21.8326 62.2919 18.7021 64.8827 23.3439C66.1781 25.6109 65.5304 29.2811 64.4509 31.548C63.4794 33.5991 60.9965 36.6216 58.8376 37.1613C56.3547 37.7011 54.0878 36.7296 51.8209 35.9739C49.0142 35.0024 42.8611 33.815 40.7021 36.7296C40.0544 37.5932 39.8385 38.7806 39.9465 39.7521C40.3783 44.3939 43.077 52.0583 47.8268 53.8934C49.6619 54.6491 51.605 54.4332 53.5481 54.2173C57.4342 53.7855 60.2409 49.4676 62.6158 46.6609C65.6383 43.2065 68.445 39.5362 70.8199 35.5421C72.9789 31.9798 75.4617 27.7698 75.6776 23.4519C75.8935 19.1339 74.3822 14.9239 71.5755 11.5775C69.9563 9.6344 68.0132 8.01522 65.9622 6.50394C64.343 5.42445 62.7237 4.2369 60.8886 3.69716Z" fill="#D16861"/>
<path fill-rule="evenodd" clip-rule="evenodd" d="M94.5633 12.1443C95.103 12.0363 95.6967 11.8744 95.8047 11.8744C100.824 10.8489 104.818 8.74388 108.597 5.28951C109.46 4.53387 111.565 1.67322 112.213 1.13348C113.184 0.269886 114.156 0.215912 114.588 0.215912C114.912 0.215912 117.88 0.539759 117.988 3.67028C117.988 3.94015 117.934 5.34349 117.934 5.45144C117.718 10.3091 117.61 15.0589 117.934 19.9166C118.366 25.8538 119.823 34.1659 118.69 41.0746C117.772 46.58 115.289 51.2758 110.108 53.8666C106.977 55.4318 103.145 55.4858 99.6369 54.2983C96.2365 53.1649 93.2139 50.9519 91.3788 48.4151C89.8675 46.3101 89.1658 43.9352 89.4357 41.6143C89.6516 39.2934 90.7851 36.9186 93.4838 34.8675C94.9411 33.6801 97.1001 34.0039 98.2335 35.5152C99.367 37.0265 99.0971 39.2395 97.5858 40.3729C96.7762 41.0206 96.2365 41.6143 96.1825 42.316C96.0746 43.5034 96.9921 44.5829 98.0716 45.5545C100.5 47.6595 104.387 49.0628 107.193 47.6055C111.187 45.5545 112.213 41.3445 112.429 36.8646C112.699 31.1973 111.619 25.0442 111.295 20.4563C111.079 17.7576 111.025 15.1129 111.025 12.4141C106.869 15.7066 102.498 17.7576 97.154 18.7831C96.7762 18.8371 94.1315 19.4848 92.998 19.2689C91.0549 18.9451 90.1374 17.6497 89.8675 16.2463C89.8135 15.9225 89.8675 14.4652 90.0294 14.1413C90.6231 12.4141 91.9185 11.9824 92.8901 11.8744C93.3758 11.8204 93.9695 11.8744 94.5633 12.1443ZM92.2963 18.7292C91.2708 18.4593 90.4072 17.7036 90.0294 16.6242C90.6231 18.2434 91.6486 18.6212 92.2963 18.7292ZM95.2649 18.0815C94.9951 18.2974 94.6712 18.5133 94.3474 18.6212L94.1854 18.6752C94.5633 18.5672 94.9411 18.3513 95.2649 18.0815Z" fill="#0B364E"/>
<path fill-rule="evenodd" clip-rule="evenodd" d="M139.632 25.0442C139.416 23.1551 137.635 13.8715 135.692 10.0393C134.558 7.82631 132.939 6.85477 131.806 6.69285C128.567 6.20708 125.707 8.09618 123.763 11.8744C120.903 17.4877 120.039 27.7969 120.039 30.9274C119.931 31.683 120.093 32.4927 120.579 33.1943C121.604 34.7596 123.71 35.1914 125.275 34.1119C125.815 33.7341 126.3 33.2483 126.57 32.4927C126.732 32.0609 126.786 30.7115 126.786 30.7115C126.786 30.7115 126.786 30.9274 126.786 30.9814C126.786 30.2257 126.84 28.8764 127.002 27.3111C127.272 27.3111 127.488 27.3111 127.758 27.2571C128.675 27.0412 130.132 26.0697 130.456 25.8538C131.266 25.5839 132.022 25.422 132.831 25.2601C132.885 25.5299 132.885 25.7458 132.939 25.9078C133.101 27.3651 133.155 28.8224 133.101 30.2797L133.047 31.1433C133.047 31.3052 132.993 31.4132 132.993 31.5751C132.993 32.9244 133.533 33.5182 133.587 33.5721C134.504 34.9215 135.692 35.1374 136.663 35.0295C137.419 34.9755 138.391 34.7056 139.2 33.5721C139.254 33.4642 139.686 32.9784 139.74 32.0069C139.74 31.845 139.794 30.6035 139.794 30.4956C139.902 28.6605 139.848 26.8793 139.632 25.0442ZM128.243 19.4848C128.459 18.6212 128.675 17.7576 128.945 17.002C129.269 16.0304 129.647 15.1129 130.132 14.3572C130.294 14.735 130.402 15.1129 130.51 15.4367C130.834 16.4622 131.158 17.5417 131.428 18.6752C130.402 18.8911 129.323 19.161 128.243 19.4848ZM139.74 31.0893V31.1433V31.1973V31.0893ZM139.74 31.2512V31.3592V31.4132V31.2512Z" fill="#0B364E"/>
<path fill-rule="evenodd" clip-rule="evenodd" d="M154.475 23.4789C155.123 22.1295 156.58 21.3739 158.091 21.5898C159.926 21.9136 161.168 23.6408 160.844 25.476C160.682 26.2856 160.358 27.0952 159.656 27.9048C158.847 28.8224 157.39 29.7939 155.5 30.3876C152.262 31.4131 147.782 31.4131 144.382 29.0383C142.115 27.419 140.172 24.7743 139.578 20.5103C139.146 17.2179 139.362 13.4936 140.873 10.471C143.086 6.15309 146.865 5.18155 149.455 5.5054C151.021 5.72129 152.316 6.47694 153.072 7.34053C153.989 8.36604 154.367 9.66143 154.205 10.9568C154.043 11.9284 153.611 13.0618 152.37 14.0873C150.967 15.2748 148.808 15.1129 147.62 13.7095C147.458 13.4936 147.296 13.2777 147.188 13.0618C147.08 13.2237 146.919 13.3857 146.865 13.5476C145.947 15.3827 145.947 17.5957 146.217 19.5927C146.433 21.2659 146.972 22.5074 147.836 23.263C149.024 24.3425 150.697 24.4504 152.1 24.2885C153.018 24.1806 154.097 23.6948 154.475 23.4789Z" fill="#0B364E"/>
<path fill-rule="evenodd" clip-rule="evenodd" d="M179.573 10.579C181.246 12.4681 182.596 14.6271 183.297 16.8401C184.215 19.5928 183.945 21.9676 182.973 23.8567C181.678 26.5555 178.871 28.4446 175.633 29.3082C170.991 30.4956 165.54 29.2542 162.787 25.9078C160.844 23.5329 159.926 20.0245 161.815 15.2748C163.003 12.2522 165 8.85183 167.807 6.96272C169.534 5.82926 172.287 5.23554 174.607 5.72131C176.604 6.15311 178.278 7.2326 179.195 9.1217C179.357 9.49952 179.519 9.98529 179.573 10.579ZM171.639 12.5221C171.585 12.5761 171.531 12.5761 171.477 12.63C169.804 13.7095 168.832 15.9225 168.077 17.7576C167.375 19.4848 167.321 20.7802 168.023 21.6438C169.264 23.1551 171.855 23.317 174.014 22.7772C175.849 22.2915 177.63 21.158 176.928 18.999C176.604 18.0815 176.119 17.1099 175.471 16.2463C175.255 16.1924 175.039 16.1384 174.877 16.0304C173.96 15.5986 173.312 14.9509 172.934 13.8715C172.88 13.7635 172.88 13.6556 172.88 13.4936C172.664 13.2777 172.394 13.1158 172.125 12.9539C171.909 12.792 171.747 12.63 171.639 12.5221Z" fill="#0B364E"/>
<path fill-rule="evenodd" clip-rule="evenodd" d="M184.323 25.0981C184.323 24.6124 184.323 22.6153 184.323 22.3994C184.269 19.3768 182.866 13.0079 183.945 9.01374C184.539 6.80079 185.78 5.18155 187.615 4.21001C189.235 3.34642 191.501 3.02258 194.686 3.94014C197.816 4.85771 199.274 6.26104 199.921 7.50246C200.785 9.22964 200.623 11.1727 199.22 13.1158C199.058 13.3317 198.896 13.5476 198.68 13.7635C201.001 14.4652 203.376 15.9225 204.779 17.8116C206.506 20.1325 206.992 22.9392 205.265 25.7998C204.401 27.2571 202.728 28.4446 200.623 29.3081C197.061 30.7115 191.933 31.1433 189.342 31.1973C188.371 31.1973 187.291 30.8194 186.806 30.4956C185.996 29.9019 185.564 29.1462 185.456 28.3366V28.2826C184.539 27.581 183.999 26.4475 184.215 25.2061L184.323 25.0981ZM191.07 24.6663C192.851 24.5584 195.064 24.2885 197.007 23.6948C197.709 23.4789 198.41 23.263 198.95 22.9392C199.166 22.8312 199.382 22.7233 199.49 22.5074C199.814 21.9676 199.382 21.5358 198.95 21.104C198.032 20.2944 196.791 19.7007 195.765 19.7007C194.74 19.7547 193.768 19.9166 192.797 20.1325L192.203 20.3484C191.987 20.4563 191.771 20.5103 191.555 20.6183L191.016 20.8342C191.07 21.3199 191.124 21.8057 191.124 22.1835C191.07 22.5074 191.07 23.6408 191.07 24.6663ZM194.686 10.633C194.524 10.4171 194.254 10.2552 193.984 10.2012C193.552 10.0393 193.067 9.93131 192.635 9.93131C192.365 9.93131 192.095 9.93131 191.879 10.0932C191.663 10.2552 191.555 10.633 191.501 10.9028C191.178 11.8744 190.908 13.0618 191.124 14.0334C191.447 13.9794 191.771 13.7635 192.041 13.6555C192.365 13.4936 192.635 13.3317 192.959 13.1698C193.552 12.8459 194.146 12.4681 194.686 12.0903C194.794 11.9823 194.956 11.8744 195.01 11.7664C195.064 11.6045 195.064 11.4426 195.01 11.3346C194.956 11.0648 194.848 10.8489 194.686 10.633C194.74 10.633 194.686 10.633 194.686 10.633Z" fill="#0B364E"/>
<path fill-rule="evenodd" clip-rule="evenodd" d="M229.445 27.6349C229.176 27.419 225.883 25.5299 222.969 24.2885C225.937 20.9961 228.69 17.5417 230.579 13.5476C232.09 10.471 233.224 7.12463 233.332 3.72423C233.386 3.40039 233.386 3.07654 233.332 2.69872C233.008 0.91756 231.281 0.215891 231.011 0.107942C229.661 -0.269879 228.474 -0.053981 227.448 1.02551C227.179 1.29538 226.585 1.8891 226.585 3.13051C226.585 5.82924 225.613 8.42001 224.426 10.8489C222.429 14.9509 219.46 18.4053 216.276 21.6977C215.574 16.3543 215.034 10.7949 215.898 6.20706C216.222 4.47988 214.98 2.86064 213.145 2.53679C211.31 2.26692 209.583 3.40039 209.259 5.12757C207.802 13.2237 210.123 24.1806 210.878 32.3307C211.04 34.1119 210.932 42.1541 210.932 43.4495C210.878 43.7193 210.878 43.9892 210.932 44.2591C211.094 45.7164 211.958 46.2561 212.12 46.418C212.983 47.1197 213.955 47.2277 214.818 47.1197C215.466 47.0118 216.168 46.7419 216.815 46.0402C216.923 45.9323 217.571 45.3386 217.625 44.0432C217.679 42.8557 217.733 33.896 217.571 31.791C217.517 31.3052 217.463 30.7654 217.409 30.2257C217.949 30.2797 218.543 30.2257 219.082 30.0098C219.244 29.9558 219.406 29.8479 219.568 29.7939C221.889 30.6575 224.966 32.3847 225.182 32.6006C231.874 37.5123 234.789 43.8273 234.789 51.6536C234.789 53.3808 236.3 54.8381 238.135 54.8381C239.971 54.8381 241.482 53.4347 241.482 51.6536C241.644 41.7762 237.866 33.842 229.445 27.6349ZM215.628 41.0746C216.492 41.3444 217.355 41.9921 217.625 43.4495C217.409 42.316 216.654 41.4524 215.628 41.0746Z" fill="#D16861"/>
<path fill-rule="evenodd" clip-rule="evenodd" d="M234.897 9.60745C234.843 9.28361 234.789 8.85181 234.789 8.63591C234.789 8.04219 234.897 7.55642 235.059 7.23258C235.329 6.63886 235.707 6.15309 236.138 5.82924C236.894 5.23552 238.081 4.58783 239.863 5.45142C240.402 5.72129 241.05 6.20706 241.482 7.12463C241.752 7.71835 242.022 10.471 242.022 10.471V10.3631C242.615 15.9764 243.641 21.7517 243.641 27.3651C243.641 29.2002 242.129 30.7115 240.294 30.7115C238.459 30.7115 236.948 29.2002 236.948 27.3651C236.948 22.2915 236.03 17.0559 235.491 11.9284C234.897 11.2807 234.735 10.4171 234.897 9.60745Z" fill="#D16861"/>
<path fill-rule="evenodd" clip-rule="evenodd" d="M260.049 10.0392C261.56 7.55641 263.773 5.93718 267.066 6.04513C269.441 6.0991 271.654 7.82628 273.003 10.9568C274.73 15.0589 275.216 22.1835 275.594 24.2885C275.756 25.1521 275.756 25.2061 275.864 26.0697C276.133 27.9048 274.892 29.632 273.057 29.9018C271.222 30.1717 269.495 28.9303 269.225 27.0952C269.117 26.3395 269.117 26.2316 268.955 25.422C268.685 23.8027 268.361 18.7831 267.282 15.0049C267.066 14.3032 266.634 13.3857 266.418 12.8999C266.148 13.0618 265.932 13.3857 265.77 13.7095C265.285 14.5731 264.907 15.5986 264.529 16.5702C263.557 19.2689 262.478 21.7517 260.967 22.9391C260.265 23.4789 259.509 23.6948 258.754 23.6948C258.052 23.6948 257.188 23.4789 256.379 22.6153C256.325 22.5073 255.677 21.9676 255.515 20.7802C255.461 20.4563 255.299 18.945 255.299 18.8371C255.245 17.8116 255.137 16.1923 254.76 14.735C254.652 14.3032 254.328 13.7095 254.22 13.4936H254.166C254.112 13.6016 253.95 13.8175 253.896 13.9794C253.626 14.5191 253.464 15.1668 253.356 15.8685C252.978 17.8116 252.978 19.8626 252.924 21.158C252.924 21.3739 252.816 23.8567 252.816 24.4504C253.086 26.1236 252.115 27.7968 250.442 28.2826C249.686 28.4985 246.555 28.7144 246.124 25.368C246.016 24.7203 246.178 21.158 246.178 20.8341C246.286 18.4053 246.447 13.8175 247.905 10.8489C248.66 9.33757 249.74 8.15013 251.035 7.44846C252.439 6.69282 254.166 6.42295 256.325 7.07064C257.836 7.44846 259.131 8.52795 260.049 10.0392ZM251.845 22.5613L251.953 22.6693L251.845 22.5613C251.845 22.5613 251.791 22.5613 251.845 22.5613L251.737 22.4534L251.845 22.5613ZM251.575 22.3454L251.629 22.3994L251.575 22.3454ZM250.819 21.8597C250.064 21.4818 249.308 21.4818 248.498 21.6977C249.308 21.4818 250.118 21.5358 250.819 21.8597Z" fill="#D16861"/>
<path fill-rule="evenodd" clip-rule="evenodd" d="M294.755 2.10501C295.078 1.61924 295.564 0.917569 295.834 0.755646C296.482 0.32385 297.184 0.161926 297.885 0.161926C299.289 0.161926 300.26 0.701671 300.854 1.67321C301.07 2.05103 301.501 2.80668 301.124 3.94014C301.124 3.99411 301.07 4.04809 301.016 4.15604C300.206 6.96271 301.394 10.7949 301.825 13.4396C302.581 18.2974 304.254 23.8028 305.442 29.3081C306.683 35.2453 307.331 41.2365 305.819 46.472C303.66 54.1364 294.485 56.2954 285.633 54.2983C277.159 52.3553 269.657 46.634 269.872 39.9411C269.926 38.3759 271.492 37.1344 273.327 37.1344C275.162 37.1884 276.673 38.4838 276.619 40.103C276.565 42.0461 277.753 43.7193 279.534 45.1766C281.585 46.8499 284.446 48.0913 287.36 48.7929C292.38 49.9264 297.993 49.5486 299.235 45.1766C300.53 40.6428 299.828 35.5152 298.749 30.3337C297.561 24.7203 295.834 19.1609 295.079 14.1953C294.917 12.9539 294.593 11.5505 294.377 10.0932C293.297 10.687 292.164 11.2807 291.084 11.7664C288.71 12.8459 286.227 13.8714 283.636 14.5191C283.528 14.5731 282.988 14.6271 282.502 14.735C281.909 15.2748 281.207 15.5447 280.451 15.5986C279.75 15.6526 278.508 15.6526 277.429 14.5731C277.321 14.4652 276.727 13.4396 276.727 13.4396C276.727 13.4396 276.835 13.6016 276.835 13.6555C276.349 12.8459 276.295 11.9823 276.835 11.1187C277.051 10.7949 277.429 10.1472 278.454 9.76939C278.886 9.60746 281.423 9.12169 281.801 9.06772C283.906 8.52797 285.957 7.71835 287.9 6.80079C290.113 5.77527 292.434 4.58783 294.107 2.9686L294.809 1.99706L294.755 2.10501ZM283.042 11.4426C282.988 11.2807 282.934 11.1727 282.826 11.0108C282.88 11.0648 282.988 11.2807 283.042 11.4426ZM280.343 9.87733C279.264 9.76938 278.292 10.0393 277.483 10.8489C278.184 10.1472 279.264 9.76938 280.343 9.87733ZM294.485 2.5368L294.539 2.42885L294.485 2.5368Z" fill="#0B364E"/>
<path fill-rule="evenodd" clip-rule="evenodd" d="M318.935 8.25811C321.85 9.3376 324.279 11.1188 325.79 13.1158C327.247 15.0049 328.003 17.1099 327.895 19.161C327.787 22.3994 325.736 25.8538 319.853 27.6889C314.239 29.4161 309.49 28.1207 306.899 25.476C304.146 22.6153 303.229 17.9195 306.791 12.4141C307.007 12.0363 309.112 9.49952 311.055 7.88028C312.296 6.80079 313.592 6.20708 314.455 5.99118C315.697 5.77528 316.722 6.04515 317.586 6.63887C318.126 7.01669 318.611 7.50246 318.935 8.25811ZM314.563 13.9794C313.592 14.897 312.566 15.9225 312.458 16.0844C311.163 18.0815 310.731 19.7007 311.757 20.7802C312.944 22.0216 315.265 22.0756 317.856 21.266C318.989 20.9421 319.853 20.5103 320.447 20.0245C320.878 19.7007 321.148 19.3229 321.202 18.9451C321.202 18.1354 320.662 17.4338 319.961 16.7321C318.935 15.7066 317.424 14.843 315.751 14.3572C315.697 14.3572 315.589 14.3032 315.535 14.3032C315.211 14.1953 314.887 14.1413 314.563 13.9794ZM313.916 8.15016L313.862 8.20413L313.916 8.15016ZM315.157 7.55644C314.725 7.66439 314.293 7.82631 313.916 8.09618C314.293 7.88028 314.725 7.66439 315.157 7.55644ZM317.208 7.77234C316.614 7.50246 316.021 7.44849 315.427 7.55644C316.021 7.44849 316.614 7.50246 317.208 7.77234ZM315.319 7.55644H315.373H315.319Z" fill="#0B364E"/>
<path fill-rule="evenodd" clip-rule="evenodd" d="M347.65 15.2208C347.38 14.2493 346.732 13.4397 345.868 13.0079C345.868 12.63 345.868 12.2522 345.868 11.8744C345.868 11.1187 345.383 9.66144 345.059 8.74387C345.329 8.09618 345.437 7.28656 345.221 6.53092C344.735 4.74976 342.9 3.67027 341.065 4.15604C340.093 4.42591 339.446 4.91168 338.96 5.5054C338.312 6.26105 337.934 7.28656 338.042 8.52797C338.096 9.17567 338.312 10.0393 338.636 10.9029C338.798 11.2807 339.014 12.0363 339.068 12.1443C339.068 12.738 339.068 13.3317 339.068 13.9794C337.718 14.3572 336.315 14.843 335.02 15.3288V12.4141C335.02 11.9823 335.236 11.0108 335.29 10.525C335.343 9.93131 335.343 9.44554 335.29 9.22964C334.966 7.39451 333.724 6.80079 332.969 6.53092C332.483 6.36899 330.162 5.66733 328.813 8.36605C328.489 9.01374 328.381 9.66144 328.489 10.3091C328.381 10.9568 328.273 11.9823 328.273 12.3602V16.4082C328.273 19.9706 328.219 23.5869 328.543 27.2031C328.705 29.0383 330.324 30.4416 332.213 30.2797C334.048 30.1178 335.451 28.4985 335.29 26.6094C335.182 25.5299 335.128 24.3965 335.128 23.317C335.721 23.0471 336.207 22.6153 336.531 22.0756C337.017 21.9136 338.042 21.5898 339.23 21.212C339.338 23.1011 339.5 24.9362 339.931 26.6634C340.363 28.4985 342.144 29.632 343.979 29.2002C345.815 28.7684 346.948 26.9872 346.516 25.1521C346.084 23.209 345.922 21.158 345.922 19.053C347.218 18.4053 348.027 16.84 347.65 15.2208ZM333.778 11.6585L333.724 11.7664L333.778 11.6585ZM333.724 11.7664C333.562 12.0363 333.4 12.2522 333.185 12.4141C333.4 12.1982 333.562 11.9823 333.724 11.7664ZM335.829 19.4848V19.4308V19.4848Z" fill="#0B364E"/>
<path fill-rule="evenodd" clip-rule="evenodd" d="M363.356 22.1835C363.41 21.5898 363.41 20.9421 363.41 20.3484C363.302 16.6242 362.924 12.2522 363.032 9.1217C363.086 7.39452 363.302 5.93721 363.68 5.01964C364.328 3.40041 366.271 2.59079 367.998 3.18451C369.725 3.77823 370.643 5.61336 369.995 7.23259C369.563 8.31208 369.725 10.525 369.779 12.9539C369.995 17.7036 370.373 23.317 369.725 26.2316C369.185 28.6065 367.782 29.9019 366.379 30.3876C365.083 30.8194 362.978 30.8194 360.604 28.6605C358.552 26.8793 356.717 24.6124 355.044 22.2915C355.044 23.4789 355.044 24.5584 355.044 25.2061V29.3621L355.098 30.6035C355.26 31.4671 355.044 32.4387 354.396 33.1943C353.533 34.1659 352.561 34.3818 351.698 34.3278C351.158 34.3278 348.999 34.1119 348.513 31.791C348.459 31.4671 348.351 29.4161 348.351 29.3621V25.2061C348.351 22.5613 347.812 16.5702 348.513 14.1413C348.945 12.684 349.809 11.7665 350.618 11.3347C351.644 10.7949 352.777 10.579 354.181 11.1188C355.044 11.4426 356.555 12.5221 358.229 15.1129C359.686 17.4877 361.413 20.0245 363.356 22.1835ZM352.723 28.0667C351.968 28.0667 351.158 28.2826 350.402 29.0923C351.05 28.4446 351.86 28.1207 352.723 28.0667Z" fill="#0B364E"/>
<path fill-rule="evenodd" clip-rule="evenodd" d="M377.336 11.3886C377.498 11.5506 377.767 11.8204 377.983 11.9284C378.631 12.4141 379.387 12.8459 380.142 13.3317C382.139 14.5191 384.244 15.8145 385.756 17.3258C387.159 18.7292 388.023 20.2404 388.292 21.9676C388.778 25.5299 385.972 28.6605 381.977 30.0638C378.253 31.3592 373.827 30.8194 371.56 28.7144C370.265 27.473 370.265 25.5299 371.56 24.2885C372.856 23.0471 375.015 23.0471 376.31 24.2885C376.526 24.5044 376.904 24.5044 377.282 24.5584C378.037 24.6124 378.901 24.5044 379.657 24.2346C380.25 24.0187 380.79 23.8028 381.168 23.4249C381.384 23.263 381.654 23.0471 381.6 22.7772C381.438 21.6438 380.196 20.8881 379.009 20.0785C376.904 18.6752 374.475 17.4338 372.964 16.0844C370.427 13.9254 369.617 11.6045 371.075 8.9058C373.449 4.47989 380.358 1.5113 384.838 5.66733C385.108 5.88323 386.781 8.31208 386.997 9.44555C387.375 11.3886 386.295 12.5761 385 13.1158C383.327 13.8715 381.276 13.1698 380.52 11.6045C380.304 11.2267 380.196 10.7949 380.196 10.4171L379.926 9.98529C379.657 9.82337 379.333 9.87734 379.063 9.98529C378.361 10.3091 377.767 10.7949 377.336 11.3886ZM381.168 8.15016C381.438 7.93426 381.762 7.71836 382.085 7.55644C381.762 7.71836 381.438 7.93426 381.168 8.15016Z" fill="#0B364E"/>
<path fill-rule="evenodd" clip-rule="evenodd" d="M402.434 6.26105C403.999 6.5849 405.51 7.17862 406.86 8.09619C409.774 10.1472 411.501 13.6556 411.717 17.1639C411.879 20.1325 411.016 22.3455 409.666 23.9647C407.723 26.2856 404.539 27.527 401.084 27.4191C395.525 27.3111 389.534 23.8028 388.184 18.5672C387.591 16.1924 387.807 13.4397 389.48 10.3631C390.451 8.63593 392.502 6.1531 394.715 5.01964C396.982 3.88618 399.357 3.77823 401.624 5.39746C401.894 5.66733 402.164 5.93721 402.434 6.26105ZM396.551 12.1982C396.065 12.738 395.687 13.2777 395.417 13.7635C394.769 14.9509 394.5 16.0304 394.769 16.948C395.417 19.4308 398.548 20.6722 401.246 20.7262C402.542 20.7262 403.783 20.5643 404.485 19.7007C404.917 19.2149 405.025 18.4593 404.971 17.5957C404.917 16.2463 404.323 14.789 403.297 13.9254C402.002 14.5191 399.897 13.8175 398.548 12.5761C398.332 12.5761 398.116 12.5761 397.9 12.5761C397.414 12.5221 396.928 12.4141 396.551 12.1982Z" fill="#0B364E"/>
<path fill-rule="evenodd" clip-rule="evenodd" d="M425.913 20.1865C425.643 15.5447 425.373 10.8489 425.157 6.20708C425.103 4.37195 426.506 2.75272 428.396 2.69874C430.285 2.64477 431.85 4.0481 431.904 5.93721C432.12 11.1727 432.498 16.4083 432.767 21.6438C432.767 22.0756 433.037 23.317 432.983 24.2346C432.983 25.368 432.606 26.2856 432.228 26.9333C431.364 28.2287 430.123 28.9843 428.18 28.5525C424.239 27.6889 421.217 25.314 418.896 22.8312C418.842 24.6124 418.842 26.1776 418.842 26.4475C418.896 28.2826 417.439 29.9019 415.604 29.9559C413.768 30.0098 412.149 28.5525 412.095 26.7174C412.095 26.1776 412.149 20.2404 412.257 18.2434C412.365 15.4907 412.851 13.9794 413.229 13.3857C413.93 12.1982 414.902 11.7125 415.819 11.5506C416.629 11.3886 417.601 11.4966 418.626 12.1443C419.274 12.5761 420.299 13.7635 421.487 15.3827C422.566 16.7321 423.97 18.7292 425.913 20.1865Z" fill="#0B364E"/>
</g>
<defs>
<clipPath id="clip0">
<rect width="432.983" height="55" fill="white"/>
</clipPath>
</defs>
</svg>
