<svg width="166" height="77" viewBox="0 0 166 77" fill="none" xmlns="http://www.w3.org/2000/svg">
<path fill-rule="evenodd" clip-rule="evenodd" d="M2.49714 55.6255C2.75712 55.5733 3.0431 55.495 3.0951 55.495C5.51295 54.9991 7.43682 53.9813 9.25671 52.3109C9.67268 51.9455 10.6866 50.5623 10.9986 50.3013C11.4666 49.8837 11.9345 49.8576 12.1425 49.8576C12.2985 49.8576 13.7284 50.0142 13.7804 51.528C13.7804 51.6585 13.7544 52.337 13.7544 52.3892C13.6504 54.7381 13.5984 57.0348 13.7544 59.3837C13.9624 62.2546 14.6644 66.2738 14.1184 69.6145C13.6764 72.2765 12.4805 74.5471 9.98466 75.7999C8.47676 76.5568 6.63088 76.5829 4.94098 76.0087C3.30309 75.4606 1.84718 74.3906 0.963236 73.1639C0.235283 72.146 -0.102698 70.9977 0.0272942 69.8755C0.131288 68.7532 0.677253 67.6049 1.97717 66.6131C2.67913 66.0389 3.71906 66.1955 4.26503 66.9263C4.81099 67.657 4.681 68.7271 3.95305 69.2752C3.56307 69.5884 3.30309 69.8755 3.27709 70.2147C3.22509 70.7889 3.66706 71.3109 4.18703 71.7807C5.35696 72.7985 7.22884 73.4771 8.58075 72.7724C10.5046 71.7807 10.9986 69.745 11.1026 67.5788C11.2326 64.8384 10.7126 61.8631 10.5566 59.6447C10.4526 58.3398 10.4266 57.0609 10.4266 55.756C8.42476 57.348 6.31889 58.3398 3.74506 58.8356C3.56307 58.8617 2.28915 59.1749 1.74319 59.0705C0.807246 58.9139 0.365273 58.2876 0.235282 57.609C0.209283 57.4524 0.235283 56.7477 0.313278 56.5911C0.599259 55.756 1.22322 55.5472 1.69119 55.495C1.92518 55.4689 2.21116 55.495 2.49714 55.6255ZM1.40521 58.8095C0.911239 58.679 0.495266 58.3137 0.313278 57.7917C0.599259 58.5747 1.09323 58.7573 1.40521 58.8095ZM2.83512 58.4964C2.70512 58.6007 2.54914 58.7051 2.39315 58.7573L2.31515 58.7834C2.49714 58.7312 2.67913 58.6268 2.83512 58.4964Z" fill="#0B364E"/>
<path fill-rule="evenodd" clip-rule="evenodd" d="M24.2057 61.8631C24.1017 60.9496 23.2438 56.4606 22.3078 54.6076C21.7619 53.5376 20.9819 53.0678 20.436 52.9895C18.8761 52.7546 17.4982 53.668 16.5622 55.495C15.1843 58.2092 14.7683 63.1941 14.7683 64.7079C14.7163 65.0732 14.7943 65.4647 15.0283 65.804C15.5223 66.5609 16.5362 66.7697 17.2902 66.2477C17.5502 66.065 17.7841 65.8301 17.9141 65.4647C17.9921 65.2559 18.0181 64.6035 18.0181 64.6035C18.0181 64.6035 18.0181 64.7079 18.0181 64.734C18.0181 64.3686 18.0441 63.7161 18.1221 62.9592C18.2521 62.9592 18.3561 62.9592 18.4861 62.9331C18.9281 62.8287 19.63 62.359 19.786 62.2546C20.176 62.1241 20.54 62.0458 20.9299 61.9675C20.9559 62.098 20.9559 62.2024 20.9819 62.2807C21.0599 62.9853 21.0859 63.69 21.0599 64.3947L21.0339 64.8123C21.0339 64.8906 21.0079 64.9427 21.0079 65.021C21.0079 65.6735 21.2679 65.9606 21.2939 65.9867C21.7359 66.6392 22.3078 66.7436 22.7758 66.6914C23.1398 66.6653 23.6078 66.5348 23.9977 65.9867C24.0237 65.9345 24.2317 65.6996 24.2577 65.2298C24.2577 65.1515 24.2837 64.5513 24.2837 64.4991C24.3357 63.6117 24.3097 62.7504 24.2057 61.8631ZM18.7201 59.1749C18.8241 58.7573 18.9281 58.3397 19.0581 57.9744C19.214 57.5046 19.396 57.0609 19.63 56.6955C19.708 56.8782 19.76 57.0609 19.812 57.2175C19.968 57.7134 20.124 58.2353 20.254 58.7834C19.76 58.8878 19.24 59.0183 18.7201 59.1749ZM24.2577 64.7862V64.8123V64.8384V64.7862ZM24.2577 64.8645V64.9166V64.9427V64.8645Z" fill="#0B364E"/>
<path fill-rule="evenodd" clip-rule="evenodd" d="M31.3551 61.1062C31.6671 60.4538 32.3691 60.0884 33.097 60.1928C33.981 60.3494 34.5789 61.1845 34.4229 62.0719C34.3449 62.4634 34.1889 62.8549 33.851 63.2464C33.461 63.69 32.759 64.1598 31.8491 64.4469C30.2892 64.9428 28.1313 64.9428 26.4934 63.7944C25.4015 63.0115 24.4656 61.7326 24.1796 59.6708C23.9716 58.0788 24.0756 56.278 24.8035 54.8164C25.8695 52.7285 27.6894 52.2587 28.9373 52.4153C29.6912 52.5197 30.3152 52.8851 30.6792 53.3027C31.1211 53.7986 31.3031 54.4249 31.2251 55.0513C31.1471 55.5211 30.9392 56.0692 30.3412 56.565C29.6652 57.1392 28.6253 57.0609 28.0533 56.3824C27.9753 56.278 27.8974 56.1736 27.8454 56.0692C27.7934 56.1475 27.7154 56.2258 27.6894 56.3041C27.2474 57.1914 27.2474 58.2615 27.3774 59.2271C27.4814 60.0362 27.7414 60.6365 28.1573 61.0019C28.7293 61.5238 29.5352 61.576 30.2112 61.4977C30.6532 61.4455 31.1731 61.2106 31.3551 61.1062Z" fill="#0B364E"/>
<path fill-rule="evenodd" clip-rule="evenodd" d="M43.4443 54.8686C44.2503 55.7821 44.9002 56.826 45.2382 57.8961C45.6802 59.2271 45.5502 60.3755 45.0822 61.2889C44.4583 62.5939 43.1064 63.5073 41.5465 63.9249C39.3106 64.4991 36.6848 63.8988 35.3589 62.2807C34.4229 61.1323 33.9809 59.4359 34.8909 57.1392C35.4628 55.6777 36.4248 54.0335 37.7767 53.12C38.6086 52.5719 39.9346 52.2848 41.0525 52.5197C42.0144 52.7285 42.8204 53.2505 43.2623 54.164C43.3403 54.3466 43.4183 54.5815 43.4443 54.8686ZM39.6226 55.8082C39.5966 55.8343 39.5706 55.8343 39.5446 55.8604C38.7386 56.3824 38.2707 57.4524 37.9067 58.3398C37.5687 59.1749 37.5427 59.8013 37.8807 60.2189C38.4786 60.9497 39.7266 61.028 40.7665 60.767C41.6504 60.5321 42.5084 59.984 42.1704 58.94C42.0144 58.4964 41.7804 58.0266 41.4685 57.609C41.3645 57.5829 41.2605 57.5568 41.1825 57.5046C40.7405 57.2958 40.4285 56.9826 40.2465 56.4607C40.2205 56.4085 40.2205 56.3563 40.2205 56.278C40.1165 56.1736 39.9866 56.0953 39.8566 56.017C39.7526 55.9387 39.6746 55.8604 39.6226 55.8082Z" fill="#0B364E"/>
<path fill-rule="evenodd" clip-rule="evenodd" d="M45.7325 61.8892C45.7325 61.6543 45.7325 60.6887 45.7325 60.5843C45.7065 59.1227 45.0306 56.0431 45.5505 54.1117C45.8365 53.0417 46.4345 52.2587 47.3184 51.7889C48.0984 51.3714 49.1903 51.2148 50.7242 51.6584C52.2321 52.1021 52.9341 52.7807 53.2461 53.381C53.662 54.2161 53.584 55.1557 52.9081 56.0953C52.8301 56.1996 52.7521 56.304 52.6481 56.4084C53.766 56.7477 54.9099 57.4524 55.5859 58.3659C56.4179 59.4881 56.6518 60.8452 55.8199 62.2285C55.4039 62.9332 54.598 63.5073 53.584 63.9249C51.8681 64.6035 49.3983 64.8123 48.1504 64.8384C47.6824 64.8384 47.1624 64.6557 46.9284 64.4991C46.5385 64.212 46.3305 63.8466 46.2785 63.4551V63.429C45.8365 63.0897 45.5765 62.5417 45.6805 61.9414L45.7325 61.8892ZM48.9823 61.6804C49.8403 61.6282 50.9062 61.4977 51.8421 61.2106C52.1801 61.1062 52.5181 61.0018 52.7781 60.8452C52.8821 60.793 52.9861 60.7408 53.0381 60.6365C53.1941 60.3755 52.9861 60.1667 52.7781 59.9579C52.3361 59.5664 51.7382 59.2793 51.2442 59.2793C50.7502 59.3054 50.2822 59.3837 49.8143 59.4881L49.5283 59.5925C49.4243 59.6447 49.3203 59.6708 49.2163 59.723L48.9563 59.8274C48.9823 60.0623 49.0083 60.2972 49.0083 60.4799C48.9823 60.6365 48.9823 61.1845 48.9823 61.6804ZM50.7242 54.8947C50.6462 54.7903 50.5162 54.712 50.3862 54.6859C50.1782 54.6076 49.9443 54.5554 49.7363 54.5554C49.6063 54.5554 49.4763 54.5554 49.3723 54.6337C49.2683 54.712 49.2163 54.8947 49.1903 55.0252C49.0343 55.495 48.9043 56.0692 49.0083 56.5389C49.1643 56.5128 49.3203 56.4084 49.4503 56.3562C49.6063 56.2779 49.7363 56.1996 49.8923 56.1214C50.1782 55.9648 50.4642 55.7821 50.7242 55.5994C50.7762 55.5472 50.8542 55.495 50.8802 55.4428C50.9062 55.3645 50.9062 55.2862 50.8802 55.234C50.8542 55.1035 50.8022 54.9991 50.7242 54.8947C50.7502 54.8947 50.7242 54.8947 50.7242 54.8947Z" fill="#0B364E"/>
<path fill-rule="evenodd" clip-rule="evenodd" d="M67.4668 63.1159C67.3368 63.0115 65.7509 62.098 64.347 61.4977C65.7769 59.9057 67.1028 58.2354 68.0128 56.304C68.7407 54.8164 69.2867 53.1983 69.3387 51.5541C69.3647 51.3975 69.3647 51.2409 69.3387 51.0582C69.1827 50.1969 68.3508 49.8576 68.2208 49.8054C67.5708 49.6227 66.9988 49.7271 66.5049 50.2491C66.3749 50.3796 66.0889 50.6667 66.0889 51.267C66.0889 52.5719 65.6209 53.8247 65.049 54.9991C64.087 56.9826 62.6571 58.6529 61.1232 60.245C60.7853 57.6612 60.5253 54.973 60.9412 52.7546C61.0972 51.9194 60.4993 51.1365 59.6153 50.9799C58.7314 50.8494 57.8994 51.3975 57.7435 52.2326C57.0415 56.1475 58.1594 61.4455 58.5234 65.3865C58.6014 66.2477 58.5494 70.1364 58.5494 70.7628C58.5234 70.8933 58.5234 71.0238 58.5494 71.1543C58.6274 71.859 59.0434 72.12 59.1214 72.1983C59.5373 72.5375 60.0053 72.5897 60.4213 72.5375C60.7333 72.4853 61.0712 72.3548 61.3832 72.0156C61.4352 71.9634 61.7472 71.6763 61.7732 71.0499C61.7992 70.4757 61.8252 66.1433 61.7472 65.1255C61.7212 64.8906 61.6952 64.6296 61.6692 64.3686C61.9292 64.3947 62.2152 64.3686 62.4751 64.2642C62.5531 64.2381 62.6311 64.1859 62.7091 64.1598C63.8271 64.5774 65.309 65.4125 65.413 65.5169C68.6367 67.8919 70.0407 70.9455 70.0407 74.7298C70.0407 75.565 70.7686 76.2697 71.6526 76.2697C72.5365 76.2697 73.2644 75.5911 73.2644 74.7298C73.3424 69.9538 71.5226 66.1172 67.4668 63.1159ZM60.8113 69.6145C61.2272 69.745 61.6432 70.0581 61.7732 70.7628C61.6692 70.2147 61.3052 69.7972 60.8113 69.6145Z" fill="#D16861"/>
<path fill-rule="evenodd" clip-rule="evenodd" d="M70.0925 54.3988C70.0665 54.2422 70.0405 54.0334 70.0405 53.929C70.0405 53.642 70.0925 53.4071 70.1705 53.2505C70.3005 52.9634 70.4825 52.7285 70.6905 52.5719C71.0545 52.2848 71.6264 51.9716 72.4844 52.3892C72.7443 52.5197 73.0563 52.7546 73.2643 53.1983C73.3943 53.4854 73.5243 54.8164 73.5243 54.8164V54.7642C73.8103 57.4785 74.3042 60.2711 74.3042 62.9853C74.3042 63.8727 73.5763 64.6035 72.6924 64.6035C71.8084 64.6035 71.0805 63.8727 71.0805 62.9853C71.0805 60.5321 70.6385 58.0005 70.3785 55.5211C70.0925 55.2079 70.0145 54.7903 70.0925 54.3988Z" fill="#D16861"/>
<path fill-rule="evenodd" clip-rule="evenodd" d="M82.2079 54.6076C82.9358 53.4071 84.0017 52.6241 85.5876 52.6763C86.7316 52.7024 87.7975 53.5376 88.4475 55.0513C89.2794 57.0348 89.5134 60.4799 89.6954 61.4977C89.7734 61.9153 89.7734 61.9414 89.8254 62.359C89.9554 63.2464 89.3574 64.0815 88.4735 64.212C87.5895 64.3425 86.7576 63.7422 86.6276 62.8549C86.5756 62.4895 86.5756 62.4373 86.4976 62.0458C86.3676 61.2628 86.2116 58.8356 85.6916 57.0087C85.5876 56.6694 85.3797 56.2258 85.2757 55.9909C85.1457 56.0692 85.0417 56.2258 84.9637 56.3824C84.7297 56.7999 84.5477 57.2958 84.3657 57.7656C83.8978 59.0705 83.3778 60.2711 82.6498 60.8453C82.3119 61.1062 81.9479 61.2106 81.5839 61.2106C81.2459 61.2106 80.83 61.1062 80.44 60.6887C80.414 60.6365 80.102 60.3755 80.024 59.8013C79.998 59.6447 79.92 58.9139 79.92 58.8617C79.894 58.3659 79.842 57.5829 79.66 56.8782C79.608 56.6694 79.452 56.3824 79.4 56.278H79.374C79.348 56.3302 79.2701 56.4346 79.2441 56.5128C79.1141 56.7738 79.0361 57.087 78.9841 57.4263C78.8021 58.3659 78.8021 59.3576 78.7761 59.984C78.7761 60.0884 78.7241 61.2889 78.7241 61.576C78.8541 62.3851 78.3861 63.1942 77.5802 63.429C77.2162 63.5334 75.7083 63.6378 75.5003 62.0197C75.4483 61.7065 75.5263 59.984 75.5263 59.8274C75.5783 58.653 75.6563 56.4346 76.3582 54.9991C76.7222 54.2683 77.2422 53.6942 77.8661 53.3549C78.5421 52.9895 79.374 52.859 80.414 53.1722C81.1419 53.3549 81.7659 53.8769 82.2079 54.6076ZM78.2561 60.6626L78.3081 60.7148L78.2561 60.6626C78.2561 60.6626 78.2301 60.6626 78.2561 60.6626L78.2041 60.6104L78.2561 60.6626ZM78.1261 60.5582L78.1521 60.5843L78.1261 60.5582ZM77.7622 60.3233C77.3982 60.1406 77.0342 60.1406 76.6442 60.245C77.0342 60.1406 77.4242 60.1667 77.7622 60.3233Z" fill="#D16861"/>
<path fill-rule="evenodd" clip-rule="evenodd" d="M98.9249 50.7711C99.0809 50.5362 99.3149 50.1969 99.4449 50.1186C99.7569 49.9098 100.095 49.8315 100.433 49.8315C101.109 49.8315 101.577 50.0925 101.863 50.5623C101.967 50.745 102.175 51.1104 101.993 51.6585C101.993 51.6846 101.967 51.7107 101.941 51.7629C101.551 53.12 102.123 54.973 102.331 56.2519C102.695 58.6008 103.501 61.2628 104.073 63.9249C104.671 66.7958 104.983 69.6928 104.255 72.2244C103.215 75.9304 98.7949 76.9743 94.5312 76.0087C90.4495 75.0691 86.8357 72.3027 86.9397 69.0664C86.9657 68.3095 87.7196 67.7093 88.6036 67.7093C89.4875 67.7354 90.2155 68.3617 90.1895 69.1447C90.1635 70.0843 90.7355 70.8933 91.5934 71.598C92.5813 72.407 93.9592 73.0073 95.3632 73.3466C97.781 73.8947 100.485 73.712 101.083 71.598C101.707 69.4057 101.369 66.9263 100.849 64.4208C100.277 61.7065 99.4449 59.0183 99.0809 56.6172C99.0029 56.017 98.8469 55.3384 98.7429 54.6337C98.223 54.9208 97.677 55.2079 97.157 55.4428C96.0131 55.9648 94.8172 56.4607 93.5693 56.7738C93.5173 56.7999 93.2573 56.826 93.0233 56.8782C92.7373 57.1392 92.3993 57.2697 92.0354 57.2958C91.6974 57.3219 91.0994 57.3219 90.5795 56.7999C90.5275 56.7477 90.2415 56.2519 90.2415 56.2519C90.2415 56.2519 90.2935 56.3302 90.2935 56.3563C90.0595 55.9648 90.0335 55.5472 90.2935 55.1296C90.3975 54.973 90.5795 54.6598 91.0734 54.4771C91.2814 54.3988 92.5033 54.164 92.6853 54.1379C93.6993 53.8769 94.6872 53.4854 95.6231 53.0417C96.6891 52.5458 97.807 51.9716 98.613 51.1887L98.9509 50.7189L98.9249 50.7711ZM93.2833 55.2862C93.2573 55.2079 93.2313 55.1557 93.1793 55.0774C93.2053 55.1035 93.2573 55.2079 93.2833 55.2862ZM91.9834 54.5293C91.4634 54.4771 90.9954 54.6076 90.6054 54.9991C90.9434 54.6598 91.4634 54.4771 91.9834 54.5293ZM98.7949 50.9799L98.8209 50.9277L98.7949 50.9799Z" fill="#0B364E"/>
<path fill-rule="evenodd" clip-rule="evenodd" d="M110.572 53.7464C111.976 54.2683 113.146 55.1296 113.874 56.0953C114.576 57.0087 114.94 58.0266 114.888 59.0183C114.836 60.5843 113.848 62.2546 111.014 63.1419C108.31 63.9771 106.023 63.3507 104.775 62.0719C103.449 60.6887 103.007 58.4181 104.723 55.756C104.827 55.5733 105.841 54.3466 106.777 53.5637C107.375 53.0417 107.998 52.7546 108.414 52.6502C109.012 52.5458 109.506 52.6763 109.922 52.9634C110.182 53.1461 110.416 53.381 110.572 53.7464ZM108.466 56.5128C107.998 56.9565 107.505 57.4524 107.453 57.5307C106.829 58.4964 106.621 59.2793 107.115 59.8013C107.687 60.4016 108.804 60.4277 110.052 60.0362C110.598 59.8796 111.014 59.6708 111.3 59.4359C111.508 59.2793 111.638 59.0966 111.664 58.9139C111.664 58.5225 111.404 58.1832 111.066 57.8439C110.572 57.348 109.844 56.9304 109.038 56.6955C109.012 56.6955 108.96 56.6694 108.934 56.6694C108.778 56.6172 108.622 56.5911 108.466 56.5128ZM108.154 53.6942L108.128 53.7203L108.154 53.6942ZM108.752 53.4071C108.544 53.4593 108.336 53.5376 108.154 53.6681C108.336 53.5637 108.544 53.4593 108.752 53.4071ZM109.74 53.5115C109.454 53.381 109.168 53.3549 108.882 53.4071C109.168 53.3549 109.454 53.381 109.74 53.5115ZM108.83 53.4071H108.856H108.83Z" fill="#0B364E"/>
<path fill-rule="evenodd" clip-rule="evenodd" d="M124.403 57.1131C124.273 56.6434 123.961 56.2519 123.545 56.0431C123.545 55.8604 123.545 55.6777 123.545 55.495C123.545 55.1296 123.311 54.425 123.155 53.9813C123.285 53.6681 123.337 53.2766 123.233 52.9112C122.999 52.05 122.116 51.528 121.232 51.7629C120.764 51.8934 120.452 52.1283 120.218 52.4154C119.906 52.7807 119.724 53.2766 119.776 53.8769C119.802 54.1901 119.906 54.6077 120.062 55.0252C120.14 55.2079 120.244 55.5733 120.27 55.6255C120.27 55.9126 120.27 56.1997 120.27 56.5129C119.62 56.6956 118.944 56.9305 118.32 57.1653V55.756C118.32 55.5472 118.424 55.0774 118.45 54.8425C118.476 54.5555 118.476 54.3206 118.45 54.2162C118.294 53.3288 117.696 53.0417 117.332 52.9112C117.098 52.8329 115.98 52.4937 115.33 53.7986C115.174 54.1118 115.122 54.425 115.174 54.7382C115.122 55.0513 115.07 55.5472 115.07 55.7299V57.6873C115.07 59.4098 115.044 61.1585 115.2 62.9071C115.278 63.7945 116.058 64.473 116.968 64.3947C117.852 64.3164 118.528 63.5335 118.45 62.62C118.398 62.098 118.372 61.55 118.372 61.028C118.658 60.8975 118.892 60.6887 119.048 60.4277C119.282 60.3494 119.776 60.1928 120.348 60.0101C120.4 60.9236 120.478 61.8109 120.686 62.6461C120.894 63.5335 121.752 64.0815 122.635 63.8728C123.519 63.664 124.065 62.8027 123.857 61.9153C123.649 60.9758 123.571 59.984 123.571 58.9662C124.195 58.653 124.585 57.8961 124.403 57.1131ZM117.722 55.3906L117.696 55.4428L117.722 55.3906ZM117.696 55.4428C117.618 55.5733 117.54 55.6777 117.436 55.756C117.54 55.6516 117.618 55.5472 117.696 55.4428ZM118.71 59.175V59.1489V59.175Z" fill="#0B364E"/>
<path fill-rule="evenodd" clip-rule="evenodd" d="M131.969 60.4799C131.995 60.1928 131.995 59.8796 131.995 59.5925C131.943 57.7917 131.761 55.6777 131.813 54.164C131.839 53.3288 131.943 52.6241 132.125 52.1804C132.437 51.3975 133.373 51.006 134.205 51.2931C135.037 51.5802 135.479 52.4675 135.167 53.2505C134.959 53.7725 135.037 54.8425 135.063 56.017C135.167 58.3137 135.349 61.028 135.037 62.4373C134.777 63.5856 134.101 64.212 133.425 64.4469C132.801 64.6557 131.787 64.6557 130.643 63.6117C129.655 62.7505 128.771 61.6543 127.965 60.5321C127.965 61.1062 127.965 61.6282 127.965 61.9414V63.951L127.991 64.5513C128.069 64.9689 127.965 65.4387 127.653 65.804C127.237 66.2738 126.769 66.3782 126.353 66.3521C126.093 66.3521 125.053 66.2477 124.819 65.1255C124.793 64.9689 124.741 63.9771 124.741 63.951V61.9414C124.741 60.6626 124.482 57.7656 124.819 56.5911C125.027 55.8865 125.443 55.4428 125.833 55.234C126.327 54.973 126.873 54.8686 127.549 55.1296C127.965 55.2862 128.693 55.8082 129.499 57.0609C130.201 58.2093 131.033 59.4359 131.969 60.4799ZM126.847 63.3246C126.483 63.3246 126.093 63.429 125.729 63.8205C126.041 63.5073 126.431 63.3507 126.847 63.3246Z" fill="#0B364E"/>
<path fill-rule="evenodd" clip-rule="evenodd" d="M138.702 55.2601C138.78 55.3384 138.91 55.4689 139.014 55.5211C139.326 55.756 139.69 55.9648 140.054 56.1997C141.016 56.7739 142.03 57.4002 142.758 58.131C143.434 58.8096 143.85 59.5403 143.98 60.3755C144.214 62.098 142.862 63.6118 140.938 64.2903C139.144 64.9167 137.012 64.6557 135.92 63.6378C135.297 63.0376 135.297 62.098 135.92 61.4977C136.544 60.8975 137.584 60.8975 138.208 61.4977C138.312 61.6021 138.494 61.6021 138.676 61.6282C139.04 61.6543 139.456 61.6021 139.82 61.4716C140.106 61.3673 140.366 61.2629 140.548 61.0802C140.652 61.0019 140.782 60.8975 140.756 60.767C140.678 60.2189 140.08 59.8535 139.508 59.462C138.494 58.7835 137.324 58.1832 136.596 57.5307C135.375 56.4868 134.985 55.3645 135.686 54.0596C136.83 51.9195 140.158 50.484 142.316 52.4936C142.446 52.598 143.252 53.7725 143.356 54.3206C143.538 55.2601 143.018 55.8343 142.394 56.0953C141.588 56.4607 140.6 56.1214 140.236 55.3645C140.132 55.1818 140.08 54.973 140.08 54.7903L139.95 54.5815C139.82 54.5033 139.664 54.5294 139.534 54.5815C139.196 54.7381 138.91 54.973 138.702 55.2601ZM140.548 53.6942C140.678 53.5898 140.834 53.4854 140.99 53.4071C140.834 53.4854 140.678 53.5898 140.548 53.6942Z" fill="#0B364E"/>
<path fill-rule="evenodd" clip-rule="evenodd" d="M150.792 52.7807C151.546 52.9373 152.274 53.2244 152.924 53.6681C154.328 54.6598 155.16 56.3563 155.264 58.0527C155.342 59.4881 154.926 60.5582 154.276 61.3412C153.34 62.4634 151.806 63.0637 150.142 63.0115C147.464 62.9593 144.578 61.2629 143.928 58.7313C143.642 57.5829 143.746 56.2519 144.552 54.7642C145.02 53.9291 146.008 52.7285 147.074 52.1805C148.166 51.6324 149.31 51.5802 150.402 52.3631C150.532 52.4936 150.662 52.6241 150.792 52.7807ZM147.958 55.6516C147.724 55.9126 147.542 56.1736 147.412 56.4085C147.1 56.9826 146.97 57.5046 147.1 57.9483C147.412 59.1488 148.92 59.7491 150.22 59.7752C150.844 59.7752 151.442 59.6969 151.78 59.2793C151.988 59.0445 152.04 58.6791 152.014 58.2615C151.988 57.609 151.702 56.9043 151.208 56.4868C150.584 56.7739 149.57 56.4346 148.92 55.8343C148.816 55.8343 148.712 55.8343 148.608 55.8343C148.374 55.8082 148.14 55.756 147.958 55.6516Z" fill="#0B364E"/>
<path fill-rule="evenodd" clip-rule="evenodd" d="M162.101 59.5142C161.971 57.2697 161.841 54.9991 161.737 52.7546C161.711 51.8673 162.387 51.0843 163.297 51.0582C164.207 51.0321 164.961 51.7107 164.987 52.6241C165.091 55.1557 165.273 57.6873 165.403 60.2189C165.403 60.4277 165.533 61.028 165.507 61.4716C165.507 62.0197 165.325 62.4634 165.143 62.7766C164.727 63.4029 164.129 63.7683 163.193 63.5595C161.295 63.142 159.839 61.9936 158.721 60.7931C158.695 61.6543 158.695 62.4112 158.695 62.5417C158.721 63.429 158.019 64.212 157.135 64.2381C156.251 64.2642 155.471 63.5595 155.445 62.6722C155.445 62.4112 155.471 59.5403 155.523 58.5747C155.575 57.2436 155.809 56.5129 155.991 56.2258C156.329 55.6516 156.797 55.4167 157.239 55.3384C157.629 55.2601 158.097 55.3123 158.591 55.6255C158.903 55.8343 159.397 56.4085 159.969 57.1914C160.489 57.8439 161.165 58.8096 162.101 59.5142Z" fill="#0B364E"/>
<path d="M78.1478 34.1743C78.1478 34.0997 78.1478 34.0251 78.2221 34.0251C78.6679 32.5334 77.9992 30.9672 77.182 29.6993C73.9129 24.7023 67.5978 22.4648 64.8489 17.1694C63.5858 14.7081 64.4031 11.7995 66.3348 9.8603C67.5978 8.66697 69.901 7.39899 71.6841 7.92107C73.6158 8.51773 73.4672 10.6061 73.6158 12.2469C73.7644 14.2607 74.9531 16.1998 77.0334 16.6473C78.5936 16.9457 80.3024 16.349 81.1939 15.0811C81.714 14.4099 81.9369 13.5894 82.1598 12.8436C82.7541 10.6807 82.977 8.36864 82.9027 6.13115C82.8284 4.49033 82.457 2.70027 81.2682 1.58152C79.708 0.0898636 77.182 -0.059284 75.1017 0.0152989C72.2041 0.0898818 69.2323 0.984877 66.632 2.25279C59.7225 5.60902 56.2306 10.4569 56.5278 15.9761C56.7506 20.2273 59.6482 24.3293 62.0256 27.611C63.4373 29.5501 64.9975 31.4893 66.632 33.2793C69.3066 36.2626 72.3527 39.1714 76.5133 36.3372C77.182 35.8152 77.8506 35.0693 78.1478 34.1743Z" fill="#0B364E"/>
<path d="M98.3564 2.32734C97.9106 2.17817 97.4649 2.10366 97.0191 2.02908C93.4529 1.65616 90.7782 3.81899 89.6638 7.17523C89.1437 8.89063 88.698 10.7553 88.9209 12.5453C89.0694 14.0369 90.1096 16.5727 91.8927 16.7964C92.4128 16.871 92.8585 16.6473 93.3043 16.349C95.4589 14.8573 99.3223 12.6944 101.105 15.9015C101.997 17.4677 101.551 20.0035 100.808 21.5698C100.14 22.9868 98.4307 25.0751 96.9448 25.448C95.236 25.821 93.6758 25.1497 92.1156 24.6276C90.1839 23.9564 85.949 23.136 84.4631 25.1498C84.0173 25.7464 83.8688 26.5668 83.943 27.2381C84.2402 30.4451 86.0976 35.7405 89.3666 37.0084C90.6297 37.5305 91.967 37.3813 93.3043 37.2322C95.9789 36.9338 97.9106 33.9505 99.5451 32.0114C101.625 29.6247 103.557 27.0889 105.192 24.3293C106.678 21.8681 108.386 18.9594 108.535 15.976C108.684 12.9927 107.643 10.084 105.712 7.77193C104.597 6.42943 103.26 5.31073 101.848 4.26657C100.734 3.52074 99.6194 2.70025 98.3564 2.32734Z" fill="#D16861"/>
</svg>
