<?xml version="1.0" encoding="utf-8"?>
<!-- Generator: Adobe Illustrator 22.0.0, SVG Export Plug-In . SVG Version: 6.00 Build 0)  -->
<svg version="1.1" id="Layer_1" xmlns="http://www.w3.org/2000/svg" xmlns:xlink="http://www.w3.org/1999/xlink" x="0px" y="0px"
	 viewBox="0 0 810.1 45" style="enable-background:new 0 0 810.1 45;" xml:space="preserve">
<style type="text/css">
	.st0{display:none;fill:#193447;}
	.st1{fill:#FFEBD4;}
	.st2{fill:#94E5FC;}
	.st3{display:none;fill:#FFEBD4;}
	.st4{display:none;fill:#94E5FC;}
</style>
<rect x="-67.7" y="-39.9" class="st0" width="954" height="141"/>
<g>
	<g>
		<path class="st1" d="M15,45.2c-5.6,0-10.2-2.4-13.7-6.5l4.4-6.7c2.9,3.1,6.3,4.7,8.9,4.7c3.1,0,5-1.9,5-5.5V10.8H5.1v-8h24v28.6
			C29.1,40.1,23.7,45.2,15,45.2z"/>
		<path class="st1" d="M73.1,36.6H53.6l-3.3,8.2h-9.8l18.2-42h9.8l17.9,42H76.4L73.1,36.6z M70,29l-6.6-16.3L56.7,29H70z"/>
		<path class="st1" d="M118.2,10.7c-7.2,0-12.8,5.6-12.8,12.9s5.6,13,12.8,13c3.8,0,7.9-1.9,10.9-4.9l5.6,6.1
			c-4.4,4.6-10.9,7.5-17,7.5c-12.5,0-22-9.3-22-21.5c0-12.1,9.7-21.2,22.4-21.2c6.1,0,12.4,2.7,16.6,7l-5.5,6.7
			C126.3,12.8,122.1,10.7,118.2,10.7z"/>
		<path class="st1" d="M190.7,23.7c0,12.1-9.7,21.4-22.6,21.4c-12.8,0-22.6-9.2-22.6-21.4c0-12.2,9.7-21.3,22.6-21.3
			C181,2.4,190.7,11.6,190.7,23.7z M155.3,23.7c0,7.4,5.9,13.1,13,13.1c7,0,12.7-5.8,12.7-13.1c0-7.4-5.7-13-12.7-13
			C161.2,10.7,155.3,16.4,155.3,23.7z"/>
		<path class="st1" d="M240.3,13.2c0,4.5-2.8,8-7.3,9.2c5.5,1,8.8,5.1,8.8,10.6c0,7.2-6.1,11.6-15.8,11.6h-20v-42h19.3
			C234.5,2.7,240.3,6.8,240.3,13.2z M230.6,15c0-2.9-2.2-4.6-5.8-4.5h-9.4v9.2h9.4C228.4,19.7,230.6,17.9,230.6,15z M232,31.9
			c0-3.1-2.8-4.9-7.2-4.9h-9.4v10h9.4C229.2,37,232,35.1,232,31.9z"/>
		<path class="st1" d="M312.3,44.7l-12.1-17.1l-6.1,6.7v10.4h-9.5v-42h9.5v19.1l17.5-19.1h11l-15.8,17.5l16.9,24.5H312.3z"/>
		<path class="st1" d="M347.4,2.7v42h-9.5v-42H347.4z"/>
		<path class="st1" d="M376.3,2.7l12.2,25.7l12.2-25.7h10.6v42h-8.5V16.4l-11.2,24.1h-6.2l-11.2-24.1v28.3h-8.6v-42H376.3z"/>
		<path class="st1" d="M465.5,45.2c-5.6,0-10.2-2.4-13.7-6.5l4.4-6.7c2.9,3.1,6.3,4.7,8.9,4.7c3.1,0,5-1.9,5-5.5V10.8h-14.5v-8h24
			v28.6C479.6,40.1,474.2,45.2,465.5,45.2z"/>
		<path class="st1" d="M539.1,23.7c0,12.1-9.7,21.4-22.6,21.4c-12.8,0-22.6-9.2-22.6-21.4c0-12.2,9.7-21.3,22.6-21.3
			C529.4,2.4,539.1,11.6,539.1,23.7z M503.7,23.7c0,7.4,5.9,13.1,13,13.1c7,0,12.7-5.8,12.7-13.1c0-7.4-5.7-13-12.7-13
			C509.6,10.7,503.7,16.4,503.7,23.7z"/>
		<path class="st1" d="M563.9,2.7v17.5h19V2.7h9.5v42h-9.5V28.2h-19v16.6h-9.5v-42H563.9z"/>
		<path class="st1" d="M619.2,2.7l20.4,27v-27h9v42H640l-20.3-26.9v26.9h-9.1v-42H619.2z"/>
		<path class="st1" d="M681.5,10.4c-3.2,0-5.3,1.1-5.3,3.4c0,7.7,22.4,3.4,22.3,18.5c0,8.2-7.1,12.7-16.4,12.7
			c-6.9,0-13.8-2.6-18.5-6.7l3.8-7.7c4.3,3.8,10.4,6.3,14.9,6.3c3.9,0,6.2-1.4,6.2-4c0-7.9-22.4-3.3-22.4-18.2
			c0-7.6,6.5-12.4,16.3-12.4c5.9,0,11.8,1.8,16,4.6l-3.7,7.9C690.1,12.1,684.8,10.4,681.5,10.4z"/>
		<path class="st1" d="M756.2,23.7c0,12.1-9.7,21.4-22.6,21.4c-12.8,0-22.6-9.2-22.6-21.4c0-12.2,9.7-21.3,22.6-21.3
			C746.5,2.4,756.2,11.6,756.2,23.7z M720.8,23.7c0,7.4,5.9,13.1,13,13.1s12.7-5.8,12.7-13.1c0-7.4-5.7-13-12.7-13
			C726.7,10.7,720.8,16.4,720.8,23.7z"/>
		<path class="st1" d="M780.1,2.7l20.4,27v-27h9v42h-8.6l-20.3-26.9v26.9h-9.1v-42H780.1z"/>
	</g>
	<g>
		<g>
			<path class="st2" d="M13,43.2c-5.6,0-10.2-2.4-13.7-6.5l4.4-6.7c2.9,3.1,6.3,4.7,8.9,4.7c3.1,0,5-1.9,5-5.5V8.8H3.1v-8h24v28.6
				C27.1,38.1,21.7,43.2,13,43.2z"/>
			<path class="st2" d="M71.1,34.6H51.6l-3.3,8.2h-9.8l18.2-42h9.8l17.9,42H74.4L71.1,34.6z M68,27l-6.6-16.3L54.7,27H68z"/>
			<path class="st2" d="M116.2,8.7c-7.2,0-12.8,5.6-12.8,12.9s5.6,13,12.8,13c3.8,0,7.9-1.9,10.9-4.9l5.6,6.1
				c-4.4,4.6-10.9,7.5-17,7.5c-12.5,0-22-9.3-22-21.5c0-12.1,9.7-21.2,22.4-21.2c6.1,0,12.4,2.7,16.6,7l-5.5,6.7
				C124.3,10.8,120.1,8.7,116.2,8.7z"/>
			<path class="st2" d="M188.7,21.7c0,12.1-9.7,21.4-22.6,21.4c-12.8,0-22.6-9.2-22.6-21.4c0-12.2,9.7-21.3,22.6-21.3
				C179,0.4,188.7,9.6,188.7,21.7z M153.3,21.7c0,7.4,5.9,13.1,13,13.1c7,0,12.7-5.8,12.7-13.1c0-7.4-5.7-13-12.7-13
				C159.2,8.7,153.3,14.4,153.3,21.7z"/>
			<path class="st2" d="M238.3,11.2c0,4.5-2.8,8-7.3,9.2c5.5,1,8.8,5.1,8.8,10.6c0,7.2-6.1,11.6-15.8,11.6h-20v-42h19.3
				C232.5,0.7,238.3,4.8,238.3,11.2z M228.6,13c0-2.9-2.2-4.6-5.8-4.5h-9.4v9.2h9.4C226.4,17.7,228.6,15.9,228.6,13z M230,29.9
				c0-3.1-2.8-4.9-7.2-4.9h-9.4v10h9.4C227.2,35,230,33.1,230,29.9z"/>
			<path class="st2" d="M310.3,42.7l-12.1-17.1l-6.1,6.7v10.4h-9.5v-42h9.5v19.1l17.5-19.1h11l-15.8,17.5l16.9,24.5H310.3z"/>
			<path class="st2" d="M345.4,0.7v42h-9.5v-42H345.4z"/>
			<path class="st2" d="M374.3,0.7l12.2,25.7l12.2-25.7h10.6v42h-8.5V14.4l-11.2,24.1h-6.2l-11.2-24.1v28.3h-8.6v-42H374.3z"/>
			<path class="st2" d="M463.5,43.2c-5.6,0-10.2-2.4-13.7-6.5l4.4-6.7c2.9,3.1,6.3,4.7,8.9,4.7c3.1,0,5-1.9,5-5.5V8.8h-14.5v-8h24
				v28.6C477.6,38.1,472.2,43.2,463.5,43.2z"/>
			<path class="st2" d="M537.1,21.7c0,12.1-9.7,21.4-22.6,21.4c-12.8,0-22.6-9.2-22.6-21.4c0-12.2,9.7-21.3,22.6-21.3
				C527.4,0.4,537.1,9.6,537.1,21.7z M501.7,21.7c0,7.4,5.9,13.1,13,13.1c7,0,12.7-5.8,12.7-13.1c0-7.4-5.7-13-12.7-13
				C507.6,8.7,501.7,14.4,501.7,21.7z"/>
			<path class="st2" d="M561.9,0.7v17.5h19V0.7h9.5v42h-9.5V26.2h-19v16.6h-9.5v-42H561.9z"/>
			<path class="st2" d="M617.2,0.7l20.4,27v-27h9v42H638l-20.3-26.9v26.9h-9.1v-42H617.2z"/>
			<path class="st2" d="M679.5,8.4c-3.2,0-5.3,1.1-5.3,3.4c0,7.7,22.4,3.4,22.3,18.5c0,8.2-7.1,12.7-16.4,12.7
				c-6.9,0-13.8-2.6-18.5-6.7l3.8-7.7c4.3,3.8,10.4,6.3,14.9,6.3c3.9,0,6.2-1.4,6.2-4c0-7.9-22.4-3.3-22.4-18.2
				c0-7.6,6.5-12.4,16.3-12.4c5.9,0,11.8,1.8,16,4.6l-3.7,7.9C688.1,10.1,682.8,8.4,679.5,8.4z"/>
			<path class="st2" d="M754.2,21.7c0,12.1-9.7,21.4-22.6,21.4c-12.8,0-22.6-9.2-22.6-21.4c0-12.2,9.7-21.3,22.6-21.3
				C744.5,0.4,754.2,9.6,754.2,21.7z M718.8,21.7c0,7.4,5.9,13.1,13,13.1s12.7-5.8,12.7-13.1c0-7.4-5.7-13-12.7-13
				C724.7,8.7,718.8,14.4,718.8,21.7z"/>
			<path class="st2" d="M778.1,0.7l20.4,27v-27h9v42h-8.6l-20.3-26.9v26.9h-9.1v-42H778.1z"/>
		</g>
	</g>
</g>
<path class="st3" d="M402.8,213.3l-9.8-15.4l-4.7,5.3v10.1h-12.5v-42.1h12.5v16.2l14.1-16.2h14.4l-15.2,17.1l16.2,25H402.8z"/>
<path class="st4" d="M445.8,213.9c-6.4,0-11.5-2.6-15.5-7l5.7-8.2c3.2,3.2,6.5,4.7,8.8,4.7c2.3,0,3.7-1.4,3.7-4.3v-17.9h-14.3v-10
	h26.9v28.1C461.1,208.6,455.1,213.9,445.8,213.9z"/>
</svg>
