<?xml version="1.0" encoding="utf-8"?>
<!-- Generator: Adobe Illustrator 22.0.0, SVG Export Plug-In . SVG Version: 6.00 Build 0)  -->
<svg version="1.1" id="Layer_1" xmlns="http://www.w3.org/2000/svg" xmlns:xlink="http://www.w3.org/1999/xlink" x="0px" y="0px"
	 viewBox="0 0 1366 768" style="enable-background:new 0 0 1366 768;" xml:space="preserve">
<style type="text/css">
	.st0{display:none;fill:#193447;}
	.st1{fill:#FFEBD4;}
	.st2{fill:#94E5FC;}
	.st3{display:none;fill:#FFEBD4;}
	.st4{display:none;fill:#94E5FC;}
</style>
<rect x="185" y="203" class="st0" width="954" height="141"/>
<g>
	<g>
		<path class="st1" d="M267.7,288.1c-5.6,0-10.2-2.4-13.7-6.5l4.4-6.7c2.9,3.1,6.3,4.7,8.9,4.7c3.1,0,5-1.9,5-5.5v-20.3h-14.5v-8h24
			v28.6C281.8,283,276.4,288.1,267.7,288.1z"/>
		<path class="st1" d="M325.7,279.5h-19.4l-3.3,8.2h-9.8l18.2-42h9.8l17.9,42H329L325.7,279.5z M322.7,271.9l-6.6-16.3l-6.7,16.3
			H322.7z"/>
		<path class="st1" d="M370.9,253.6c-7.2,0-12.8,5.6-12.8,12.9s5.6,13,12.8,13c3.8,0,7.9-1.9,10.9-4.9l5.6,6.1
			c-4.4,4.6-10.9,7.5-17,7.5c-12.5,0-22-9.3-22-21.5c0-12.1,9.7-21.2,22.4-21.2c6.1,0,12.4,2.7,16.6,7l-5.5,6.7
			C379,255.7,374.8,253.6,370.9,253.6z"/>
		<path class="st1" d="M443.4,266.6c0,12.1-9.7,21.4-22.6,21.4c-12.8,0-22.6-9.2-22.6-21.4c0-12.2,9.7-21.3,22.6-21.3
			C433.7,245.3,443.4,254.5,443.4,266.6z M408,266.6c0,7.4,5.9,13.1,13,13.1c7,0,12.7-5.8,12.7-13.1c0-7.4-5.7-13-12.7-13
			C413.9,253.6,408,259.3,408,266.6z"/>
		<path class="st1" d="M493,256.1c0,4.5-2.8,8-7.3,9.2c5.5,1,8.8,5.1,8.8,10.6c0,7.2-6.1,11.6-15.8,11.6h-20v-42H478
			C487.2,245.6,493,249.7,493,256.1z M483.2,257.9c0-2.9-2.2-4.6-5.8-4.5h-9.4v9.2h9.4C481.1,262.6,483.2,260.8,483.2,257.9z
			 M484.7,274.8c0-3.1-2.8-4.9-7.2-4.9h-9.4v10h9.4C481.9,279.9,484.7,278,484.7,274.8z"/>
		<path class="st1" d="M565,287.6l-12.1-17.1l-6.1,6.7v10.4h-9.5v-42h9.5v19.1l17.5-19.1h11l-15.8,17.5l16.9,24.5H565z"/>
		<path class="st1" d="M600.1,245.6v42h-9.5v-42H600.1z"/>
		<path class="st1" d="M629,245.6l12.2,25.7l12.2-25.7h10.6v42h-8.5v-28.3l-11.2,24.1h-6.2l-11.2-24.1v28.3h-8.6v-42H629z"/>
		<path class="st1" d="M718.1,288.1c-5.6,0-10.2-2.4-13.7-6.5l4.4-6.7c2.9,3.1,6.3,4.7,8.9,4.7c3.1,0,5-1.9,5-5.5v-20.3h-14.5v-8h24
			v28.6C732.2,283,726.8,288.1,718.1,288.1z"/>
		<path class="st1" d="M791.8,266.6c0,12.1-9.7,21.4-22.6,21.4c-12.8,0-22.6-9.2-22.6-21.4c0-12.2,9.7-21.3,22.6-21.3
			C782.1,245.3,791.8,254.5,791.8,266.6z M756.4,266.6c0,7.4,5.9,13.1,13,13.1s12.7-5.8,12.7-13.1c0-7.4-5.7-13-12.7-13
			C762.3,253.6,756.4,259.3,756.4,266.6z"/>
		<path class="st1" d="M816.5,245.6v17.5h19v-17.5h9.5v42h-9.5v-16.6h-19v16.6H807v-42H816.5z"/>
		<path class="st1" d="M871.9,245.6l20.4,27v-27h9v42h-8.6l-20.3-26.9v26.9h-9.1v-42H871.9z"/>
		<path class="st1" d="M934.1,253.3c-3.2,0-5.3,1.1-5.3,3.4c0,7.7,22.4,3.4,22.3,18.5c0,8.2-7.1,12.7-16.4,12.7
			c-6.9,0-13.8-2.6-18.5-6.7l3.8-7.7c4.3,3.8,10.4,6.3,14.9,6.3c3.9,0,6.2-1.4,6.2-4c0-7.9-22.4-3.3-22.4-18.2
			c0-7.6,6.5-12.4,16.3-12.4c5.9,0,11.8,1.8,16,4.6l-3.7,7.9C942.8,255,937.5,253.3,934.1,253.3z"/>
		<path class="st1" d="M1008.9,266.6c0,12.1-9.7,21.4-22.6,21.4c-12.8,0-22.6-9.2-22.6-21.4c0-12.2,9.7-21.3,22.6-21.3
			C999.2,245.3,1008.9,254.5,1008.9,266.6z M973.5,266.6c0,7.4,5.9,13.1,13,13.1s12.7-5.8,12.7-13.1c0-7.4-5.7-13-12.7-13
			C979.4,253.6,973.5,259.3,973.5,266.6z"/>
		<path class="st1" d="M1032.8,245.6l20.4,27v-27h9v42h-8.6l-20.3-26.9v26.9h-9.1v-42H1032.8z"/>
	</g>
	<g>
		<g>
			<path class="st2" d="M265.7,286.1c-5.6,0-10.2-2.4-13.7-6.5l4.4-6.7c2.9,3.1,6.3,4.7,8.9,4.7c3.1,0,5-1.9,5-5.5v-20.3h-14.5v-8
				h24v28.6C279.8,281,274.4,286.1,265.7,286.1z"/>
			<path class="st2" d="M323.7,277.5h-19.4l-3.3,8.2h-9.8l18.2-42h9.8l17.9,42H327L323.7,277.5z M320.7,269.9l-6.6-16.3l-6.7,16.3
				H320.7z"/>
			<path class="st2" d="M368.9,251.6c-7.2,0-12.8,5.6-12.8,12.9s5.6,13,12.8,13c3.8,0,7.9-1.9,10.9-4.9l5.6,6.1
				c-4.4,4.6-10.9,7.5-17,7.5c-12.5,0-22-9.3-22-21.5c0-12.1,9.7-21.2,22.4-21.2c6.1,0,12.4,2.7,16.6,7l-5.5,6.7
				C377,253.7,372.8,251.6,368.9,251.6z"/>
			<path class="st2" d="M441.4,264.6c0,12.1-9.7,21.4-22.6,21.4c-12.8,0-22.6-9.2-22.6-21.4c0-12.2,9.7-21.3,22.6-21.3
				C431.7,243.3,441.4,252.5,441.4,264.6z M406,264.6c0,7.4,5.9,13.1,13,13.1c7,0,12.7-5.8,12.7-13.1c0-7.4-5.7-13-12.7-13
				C411.9,251.6,406,257.3,406,264.6z"/>
			<path class="st2" d="M491,254.1c0,4.5-2.8,8-7.3,9.2c5.5,1,8.8,5.1,8.8,10.6c0,7.2-6.1,11.6-15.8,11.6h-20v-42H476
				C485.2,243.6,491,247.7,491,254.1z M481.2,255.9c0-2.9-2.2-4.6-5.8-4.5h-9.4v9.2h9.4C479.1,260.6,481.2,258.8,481.2,255.9z
				 M482.7,272.8c0-3.1-2.8-4.9-7.2-4.9h-9.4v10h9.4C479.9,277.9,482.7,276,482.7,272.8z"/>
			<path class="st2" d="M563,285.6l-12.1-17.1l-6.1,6.7v10.4h-9.5v-42h9.5v19.1l17.5-19.1h11l-15.8,17.5l16.9,24.5H563z"/>
			<path class="st2" d="M598.1,243.6v42h-9.5v-42H598.1z"/>
			<path class="st2" d="M627,243.6l12.2,25.7l12.2-25.7h10.6v42h-8.5v-28.3l-11.2,24.1h-6.2l-11.2-24.1v28.3h-8.6v-42H627z"/>
			<path class="st2" d="M716.1,286.1c-5.6,0-10.2-2.4-13.7-6.5l4.4-6.7c2.9,3.1,6.3,4.7,8.9,4.7c3.1,0,5-1.9,5-5.5v-20.3h-14.5v-8
				h24v28.6C730.2,281,724.8,286.1,716.1,286.1z"/>
			<path class="st2" d="M789.8,264.6c0,12.1-9.7,21.4-22.6,21.4c-12.8,0-22.6-9.2-22.6-21.4c0-12.2,9.7-21.3,22.6-21.3
				C780.1,243.3,789.8,252.5,789.8,264.6z M754.4,264.6c0,7.4,5.9,13.1,13,13.1s12.7-5.8,12.7-13.1c0-7.4-5.7-13-12.7-13
				C760.3,251.6,754.4,257.3,754.4,264.6z"/>
			<path class="st2" d="M814.5,243.6v17.5h19v-17.5h9.5v42h-9.5v-16.6h-19v16.6H805v-42H814.5z"/>
			<path class="st2" d="M869.9,243.6l20.4,27v-27h9v42h-8.6l-20.3-26.9v26.9h-9.1v-42H869.9z"/>
			<path class="st2" d="M932.1,251.3c-3.2,0-5.3,1.1-5.3,3.4c0,7.7,22.4,3.4,22.3,18.5c0,8.2-7.1,12.7-16.4,12.7
				c-6.9,0-13.8-2.6-18.5-6.7l3.8-7.7c4.3,3.8,10.4,6.3,14.9,6.3c3.9,0,6.2-1.4,6.2-4c0-7.9-22.4-3.3-22.4-18.2
				c0-7.6,6.5-12.4,16.3-12.4c5.9,0,11.8,1.8,16,4.6l-3.7,7.9C940.8,253,935.5,251.3,932.1,251.3z"/>
			<path class="st2" d="M1006.9,264.6c0,12.1-9.7,21.4-22.6,21.4c-12.8,0-22.6-9.2-22.6-21.4c0-12.2,9.7-21.3,22.6-21.3
				C997.2,243.3,1006.9,252.5,1006.9,264.6z M971.5,264.6c0,7.4,5.9,13.1,13,13.1s12.7-5.8,12.7-13.1c0-7.4-5.7-13-12.7-13
				C977.4,251.6,971.5,257.3,971.5,264.6z"/>
			<path class="st2" d="M1030.8,243.6l20.4,27v-27h9v42h-8.6l-20.3-26.9v26.9h-9.1v-42H1030.8z"/>
		</g>
	</g>
</g>
<path class="st3" d="M655.5,456.2l-9.8-15.4l-4.7,5.3v10.1h-12.5v-42.1H641v16.2l14.1-16.2h14.4l-15.2,17.1l16.2,25H655.5z"/>
<path class="st4" d="M698.4,456.8c-6.4,0-11.5-2.6-15.5-7l5.7-8.2c3.2,3.2,6.5,4.7,8.8,4.7c2.3,0,3.7-1.4,3.7-4.3v-17.9h-14.3v-10
	h26.9v28.1C713.7,451.5,707.8,456.8,698.4,456.8z"/>
</svg>
