<?xml version="1.0" encoding="utf-8"?>
<!-- Generator: Adobe Illustrator 22.0.0, SVG Export Plug-In . SVG Version: 6.00 Build 0)  -->
<svg version="1.1" id="Layer_1" xmlns="http://www.w3.org/2000/svg" xmlns:xlink="http://www.w3.org/1999/xlink" x="0px" y="0px"
	 viewBox="0 0 821.1 113" style="enable-background:new 0 0 821.1 113;" xml:space="preserve">
<style type="text/css">
	.st0{display:none;fill:#193447;}
	.st1{fill:#FFEBD4;}
	.st2{fill:#94E5FC;}
	.st3{display:none;fill:#FFEBD4;}
	.st4{display:none;fill:#94E5FC;}
</style>
<rect x="-56.7" y="-5.9" class="st0" width="954" height="141"/>
<g>
	<g>
		<path class="st1" d="M22.2,79.9c-5.6,0-10.2-2.4-13.7-6.5l4.4-6.7c2.9,3.1,6.3,4.7,8.9,4.7c3.1,0,5-1.9,5-5.5V45.6H12.3v-8h24
			v28.6C36.3,74.9,30.9,79.9,22.2,79.9z"/>
		<path class="st1" d="M80.2,71.4H60.8l-3.3,8.2h-9.8l18.2-42h9.8l17.9,42H83.5L80.2,71.4z M77.2,63.7l-6.6-16.3l-6.7,16.3H77.2z"/>
		<path class="st1" d="M125.4,45.4c-7.2,0-12.8,5.6-12.8,12.9s5.6,13,12.8,13c3.8,0,7.9-1.9,10.9-4.9l5.6,6.1
			c-4.4,4.6-10.9,7.5-17,7.5c-12.5,0-22-9.3-22-21.5c0-12.1,9.7-21.2,22.4-21.2c6.1,0,12.4,2.7,16.6,7l-5.5,6.7
			C133.5,47.6,129.3,45.4,125.4,45.4z"/>
		<path class="st1" d="M197.9,58.5c0,12.1-9.7,21.4-22.6,21.4c-12.8,0-22.6-9.2-22.6-21.4c0-12.2,9.7-21.3,22.6-21.3
			C188.2,37.2,197.9,46.3,197.9,58.5z M162.5,58.5c0,7.4,5.9,13.1,13,13.1c7,0,12.7-5.8,12.7-13.1c0-7.4-5.7-13-12.7-13
			C168.4,45.5,162.5,51.1,162.5,58.5z"/>
		<path class="st1" d="M247.5,48c0,4.5-2.8,8-7.3,9.2c5.5,1,8.8,5.1,8.8,10.6c0,7.2-6.1,11.6-15.8,11.6h-20v-42h19.3
			C241.7,37.5,247.5,41.5,247.5,48z M237.7,49.8c0-2.9-2.2-4.6-5.8-4.5h-9.4v9.2h9.4C235.6,54.4,237.7,52.7,237.7,49.8z M239.2,66.7
			c0-3.1-2.8-4.9-7.2-4.9h-9.4v10h9.4C236.4,71.8,239.2,69.9,239.2,66.7z"/>
		<path class="st1" d="M319.5,79.5l-12.1-17.1l-6.1,6.7v10.4h-9.5v-42h9.5v19.1l17.5-19.1h11L314,55l16.9,24.5H319.5z"/>
		<path class="st1" d="M354.6,37.5v42h-9.5v-42H354.6z"/>
		<path class="st1" d="M383.5,37.5l12.2,25.7l12.2-25.7h10.6v42h-8.5V51.2l-11.2,24.1h-6.2l-11.2-24.1v28.3h-8.6v-42H383.5z"/>
		<path class="st1" d="M472.6,79.9c-5.6,0-10.2-2.4-13.7-6.5l4.4-6.7c2.9,3.1,6.3,4.7,8.9,4.7c3.1,0,5-1.9,5-5.5V45.6h-14.5v-8h24
			v28.6C486.7,74.9,481.3,79.9,472.6,79.9z"/>
		<path class="st1" d="M546.3,58.5c0,12.1-9.7,21.4-22.6,21.4c-12.8,0-22.6-9.2-22.6-21.4c0-12.2,9.7-21.3,22.6-21.3
			C536.6,37.2,546.3,46.3,546.3,58.5z M510.9,58.5c0,7.4,5.9,13.1,13,13.1s12.7-5.8,12.7-13.1c0-7.4-5.7-13-12.7-13
			C516.8,45.5,510.9,51.1,510.9,58.5z"/>
		<path class="st1" d="M571,37.5V55h19V37.5h9.5v42H590V63h-19v16.6h-9.5v-42H571z"/>
		<path class="st1" d="M626.4,37.5l20.4,27v-27h9v42h-8.6l-20.3-26.9v26.9h-9.1v-42H626.4z"/>
		<path class="st1" d="M688.6,45.2c-3.2,0-5.3,1.1-5.3,3.4c0,7.7,22.4,3.4,22.3,18.5c0,8.2-7.1,12.7-16.4,12.7
			c-6.9,0-13.8-2.6-18.5-6.7l3.8-7.7c4.3,3.8,10.4,6.3,14.9,6.3c3.9,0,6.2-1.4,6.2-4c0-7.9-22.4-3.3-22.4-18.2
			c0-7.6,6.5-12.4,16.3-12.4c5.9,0,11.8,1.8,16,4.6l-3.7,7.9C697.3,46.9,692,45.2,688.6,45.2z"/>
		<path class="st1" d="M763.4,58.5c0,12.1-9.7,21.4-22.6,21.4c-12.8,0-22.6-9.2-22.6-21.4c0-12.2,9.7-21.3,22.6-21.3
			C753.7,37.2,763.4,46.3,763.4,58.5z M728,58.5c0,7.4,5.9,13.1,13,13.1s12.7-5.8,12.7-13.1c0-7.4-5.7-13-12.7-13
			C733.9,45.5,728,51.1,728,58.5z"/>
		<path class="st1" d="M787.3,37.5l20.4,27v-27h9v42H808l-20.3-26.9v26.9h-9.1v-42H787.3z"/>
	</g>
	<g>
		<g>
			<path class="st2" d="M20.2,77.9c-5.6,0-10.2-2.4-13.7-6.5l4.4-6.7c2.9,3.1,6.3,4.7,8.9,4.7c3.1,0,5-1.9,5-5.5V43.6H10.3v-8h24
				v28.6C34.3,72.9,28.9,77.9,20.2,77.9z"/>
			<path class="st2" d="M78.2,69.4H58.8l-3.3,8.2h-9.8l18.2-42h9.8l17.9,42H81.5L78.2,69.4z M75.2,61.7l-6.6-16.3l-6.7,16.3H75.2z"
				/>
			<path class="st2" d="M123.4,43.4c-7.2,0-12.8,5.6-12.8,12.9s5.6,13,12.8,13c3.8,0,7.9-1.9,10.9-4.9l5.6,6.1
				c-4.4,4.6-10.9,7.5-17,7.5c-12.5,0-22-9.3-22-21.5c0-12.1,9.7-21.2,22.4-21.2c6.1,0,12.4,2.7,16.6,7l-5.5,6.7
				C131.5,45.6,127.3,43.4,123.4,43.4z"/>
			<path class="st2" d="M195.9,56.5c0,12.1-9.7,21.4-22.6,21.4c-12.8,0-22.6-9.2-22.6-21.4c0-12.2,9.7-21.3,22.6-21.3
				C186.2,35.2,195.9,44.3,195.9,56.5z M160.5,56.5c0,7.4,5.9,13.1,13,13.1c7,0,12.7-5.8,12.7-13.1c0-7.4-5.7-13-12.7-13
				C166.4,43.5,160.5,49.1,160.5,56.5z"/>
			<path class="st2" d="M245.5,46c0,4.5-2.8,8-7.3,9.2c5.5,1,8.8,5.1,8.8,10.6c0,7.2-6.1,11.6-15.8,11.6h-20v-42h19.3
				C239.7,35.5,245.5,39.5,245.5,46z M235.7,47.8c0-2.9-2.2-4.6-5.8-4.5h-9.4v9.2h9.4C233.6,52.4,235.7,50.7,235.7,47.8z
				 M237.2,64.7c0-3.1-2.8-4.9-7.2-4.9h-9.4v10h9.4C234.4,69.8,237.2,67.9,237.2,64.7z"/>
			<path class="st2" d="M317.5,77.5l-12.1-17.1l-6.1,6.7v10.4h-9.5v-42h9.5v19.1l17.5-19.1h11L312,53l16.9,24.5H317.5z"/>
			<path class="st2" d="M352.6,35.5v42h-9.5v-42H352.6z"/>
			<path class="st2" d="M381.5,35.5l12.2,25.7l12.2-25.7h10.6v42h-8.5V49.2l-11.2,24.1h-6.2l-11.2-24.1v28.3h-8.6v-42H381.5z"/>
			<path class="st2" d="M470.6,77.9c-5.6,0-10.2-2.4-13.7-6.5l4.4-6.7c2.9,3.1,6.3,4.7,8.9,4.7c3.1,0,5-1.9,5-5.5V43.6h-14.5v-8h24
				v28.6C484.7,72.9,479.3,77.9,470.6,77.9z"/>
			<path class="st2" d="M544.3,56.5c0,12.1-9.7,21.4-22.6,21.4c-12.8,0-22.6-9.2-22.6-21.4c0-12.2,9.7-21.3,22.6-21.3
				C534.6,35.2,544.3,44.3,544.3,56.5z M508.9,56.5c0,7.4,5.9,13.1,13,13.1s12.7-5.8,12.7-13.1c0-7.4-5.7-13-12.7-13
				C514.8,43.5,508.9,49.1,508.9,56.5z"/>
			<path class="st2" d="M569,35.5V53h19V35.5h9.5v42H588V61h-19v16.6h-9.5v-42H569z"/>
			<path class="st2" d="M624.4,35.5l20.4,27v-27h9v42h-8.6l-20.3-26.9v26.9h-9.1v-42H624.4z"/>
			<path class="st2" d="M686.6,43.2c-3.2,0-5.3,1.1-5.3,3.4c0,7.7,22.4,3.4,22.3,18.5c0,8.2-7.1,12.7-16.4,12.7
				c-6.9,0-13.8-2.6-18.5-6.7l3.8-7.7c4.3,3.8,10.4,6.3,14.9,6.3c3.9,0,6.2-1.4,6.2-4c0-7.9-22.4-3.3-22.4-18.2
				c0-7.6,6.5-12.4,16.3-12.4c5.9,0,11.8,1.8,16,4.6l-3.7,7.9C695.3,44.9,690,43.2,686.6,43.2z"/>
			<path class="st2" d="M761.4,56.5c0,12.1-9.7,21.4-22.6,21.4c-12.8,0-22.6-9.2-22.6-21.4c0-12.2,9.7-21.3,22.6-21.3
				C751.7,35.2,761.4,44.3,761.4,56.5z M726,56.5c0,7.4,5.9,13.1,13,13.1s12.7-5.8,12.7-13.1c0-7.4-5.7-13-12.7-13
				C731.9,43.5,726,49.1,726,56.5z"/>
			<path class="st2" d="M785.3,35.5l20.4,27v-27h9v42H806l-20.3-26.9v26.9h-9.1v-42H785.3z"/>
		</g>
	</g>
</g>
<path class="st3" d="M413.8,247.3l-9.8-15.4l-4.7,5.3v10.1h-12.5v-42.1h12.5v16.2l14.1-16.2h14.4l-15.2,17.1l16.2,25H413.8z"/>
<path class="st4" d="M456.8,247.9c-6.4,0-11.5-2.6-15.5-7l5.7-8.2c3.2,3.2,6.5,4.7,8.8,4.7c2.3,0,3.7-1.4,3.7-4.3v-17.9h-14.3v-10
	h26.9v28.1C472.1,242.6,466.1,247.9,456.8,247.9z"/>
</svg>
