<svg id="Layer_1" data-name="Layer 1" xmlns="http://www.w3.org/2000/svg" viewBox="0 0 720.4 119.4"><defs><style>.cls-1{fill:#d8d8d8;}.cls-2{fill:#00aeef;}</style></defs><title>2017-logo-gray-fianl</title><path class="cls-1" d="M200.3,212.3l13,48.7,16-48.7h15.6l16,48.7,13-48.7h20.5l-22.5,75.4h-20L237.1,244l-14.8,43.7h-20l-22.5-75.4h20.5Z" transform="translate(-179.8 -190.3)"/><path class="cls-1" d="M297.3,250a38.85,38.85,0,0,1,24.85-36.75,47.93,47.93,0,0,1,33.65,0,39.78,39.78,0,0,1,13.25,8.45,38.68,38.68,0,0,1,8.65,12.65,41.05,41.05,0,0,1,0,31.3,38.67,38.67,0,0,1-8.65,12.65,39.73,39.73,0,0,1-13.25,8.45,47.92,47.92,0,0,1-33.65,0A39,39,0,0,1,297.3,250Zm20.5,0a20.07,20.07,0,0,0,1.7,8.3,20.76,20.76,0,0,0,11.35,10.95A21.81,21.81,0,0,0,354,264.9a20.6,20.6,0,0,0,4.65-6.6,21.11,21.11,0,0,0,0-16.6,20.64,20.64,0,0,0-4.65-6.6,22,22,0,0,0-23.1-4.35,20.76,20.76,0,0,0-11.35,11A20.07,20.07,0,0,0,317.8,250Z" transform="translate(-179.8 -190.3)"/><path class="cls-1" d="M455.9,287.7H431.5l-18.7-29v29H393.2V212.3h30.5a30,30,0,0,1,11,1.85,20.71,20.71,0,0,1,12.35,12.45,25.8,25.8,0,0,1,1.55,9q0,8.6-4.15,14T432.2,256.8ZM412.8,246h3.7q5.8,0,8.9-2.4a9.23,9.23,0,0,0,0-13.8q-3.1-2.4-8.9-2.4h-3.7V246Z" transform="translate(-179.8 -190.3)"/><path class="cls-1" d="M464.1,212.3h29a34.23,34.23,0,0,1,14.45,3.1,39.41,39.41,0,0,1,11.8,8.25,38.34,38.34,0,0,1,8,12,37,37,0,0,1,0,28.6,38.17,38.17,0,0,1-7.9,12.05,38.92,38.92,0,0,1-11.8,8.3,34.43,34.43,0,0,1-14.55,3.1h-29V212.3Zm19.6,58.8h4.5a24.33,24.33,0,0,0,9.1-1.6,19.43,19.43,0,0,0,6.75-4.4,18.84,18.84,0,0,0,4.2-6.65A23.81,23.81,0,0,0,509.7,250a23.2,23.2,0,0,0-1.5-8.4,18.83,18.83,0,0,0-11-11.1,24.08,24.08,0,0,0-9-1.6h-4.5v42.2Z" transform="translate(-179.8 -190.3)"/><path class="cls-2" d="M636.2,250a38.85,38.85,0,0,1,24.85-36.75,47.94,47.94,0,0,1,33.65,0A39.78,39.78,0,0,1,708,221.7a38.7,38.7,0,0,1,8.65,12.65,41,41,0,0,1,0,31.3A38.7,38.7,0,0,1,708,278.3a39.74,39.74,0,0,1-13.25,8.45,47.92,47.92,0,0,1-33.65,0A39,39,0,0,1,636.2,250Zm20.5,0a20.07,20.07,0,0,0,1.7,8.3,20.76,20.76,0,0,0,11.35,10.95,21.81,21.81,0,0,0,23.1-4.35,20.59,20.59,0,0,0,4.65-6.6,21.1,21.1,0,0,0,0-16.6,20.63,20.63,0,0,0-4.65-6.6,22,22,0,0,0-23.1-4.35,20.76,20.76,0,0,0-11.35,11A20.07,20.07,0,0,0,656.7,250Z" transform="translate(-179.8 -190.3)"/><path class="cls-2" d="M732.1,287.7V212.3h19.6l36.2,46.1V212.3h19.5v75.4H787.9l-36.2-46.1v46.1H732.1Z" transform="translate(-179.8 -190.3)"/><path class="cls-2" d="M861.3,245.5h38.9a108.15,108.15,0,0,1-.5,10.9,38.7,38.7,0,0,1-2,9.1,36.26,36.26,0,0,1-5.7,10.45,33.34,33.34,0,0,1-8.45,7.6,39.69,39.69,0,0,1-10.65,4.65,45.74,45.74,0,0,1-12.2,1.6,42.86,42.86,0,0,1-16-2.9,36.2,36.2,0,0,1-12.45-8.15,36.9,36.9,0,0,1-8.1-12.6,47.08,47.08,0,0,1,0-32.4,35.44,35.44,0,0,1,8.1-12.55,36.82,36.82,0,0,1,12.65-8.1,44.88,44.88,0,0,1,16.5-2.9,40.91,40.91,0,0,1,20.7,5.1q8.9,5.1,14.1,15.8l-18.6,7.7q-2.6-6.2-6.75-8.9a16.94,16.94,0,0,0-9.45-2.7,19,19,0,0,0-8,1.65,17.34,17.34,0,0,0-6.15,4.7,22.54,22.54,0,0,0-4,7.35,29.92,29.92,0,0,0-1.45,9.6,30.33,30.33,0,0,0,1.25,8.9,20.08,20.08,0,0,0,3.75,7.1,16.89,16.89,0,0,0,6.2,4.65,20.94,20.94,0,0,0,8.6,1.65,23.77,23.77,0,0,0,5.6-.65,14.76,14.76,0,0,0,4.85-2.1,11.94,11.94,0,0,0,3.55-3.75,15,15,0,0,0,1.9-5.6H861.3V245.5Z" transform="translate(-179.8 -190.3)"/><path class="cls-1" d="M580.55,217.45a15.09,15.09,0,0,1,9.3-2.7,25.52,25.52,0,0,1,9.3,1.88,36.42,36.42,0,0,1,9.6,5.78l11.7-23a77.54,77.54,0,0,0-17.55-6.83,71.3,71.3,0,0,0-17.55-2.33,46.5,46.5,0,0,0-16.28,2.7,34.76,34.76,0,0,0-12.3,7.58,33.82,33.82,0,0,0-7.8,11.7,40.06,40.06,0,0,0-2.77,15.22q0,8.4,2.63,13.88a26.81,26.81,0,0,0,6.9,9.08,34.44,34.44,0,0,0,7.09,4.6l14.55-33.28A8.62,8.62,0,0,1,580.55,217.45Z" transform="translate(-179.8 -190.3)"/><path class="cls-2" d="M618.43,250.38a35.16,35.16,0,0,0-9.76-7.88l-14.71,33.66a10.65,10.65,0,0,1-3.27,5.35q-3.53,3.3-10.73,3.3A31.36,31.36,0,0,1,567.2,282a51,51,0,0,1-13-8.7L541.55,297A68.12,68.12,0,0,0,581.3,309.7a57.49,57.49,0,0,0,18.52-2.78,39.42,39.42,0,0,0,13.8-7.8A32.85,32.85,0,0,0,622.18,287a40.73,40.73,0,0,0,2.92-15.75Q625.1,258.4,618.43,250.38Z" transform="translate(-179.8 -190.3)"/><path class="cls-2" d="M573.15,235.82h11.57v3.11h-4V262.2h-3.49V238.93h-4.1v-3.11Z" transform="translate(-179.8 -190.3)"/><path class="cls-1" d="M600.14,249.66q0,7-1.55,9.93a5.43,5.43,0,0,1-5.21,2.94,5.55,5.55,0,0,1-5.42-3.16q-1.56-3.09-1.56-11,0-7,1.54-10a5.47,5.47,0,0,1,5.26-2.94,5.62,5.62,0,0,1,4.92,2.27,10.78,10.78,0,0,1,1.54,4.32A45,45,0,0,1,600.14,249.66Zm-3.73.38q0-6.85-.62-9.09t-2.51-2.26a2.52,2.52,0,0,0-2.53,2.07q-0.62,2.08-.62,8.37a33.24,33.24,0,0,0,.65,8,2.55,2.55,0,0,0,2.5,2.12,2.49,2.49,0,0,0,2.46-2A26.24,26.24,0,0,0,596.41,250Z" transform="translate(-179.8 -190.3)"/></svg>