<svg id="Layer_1" data-name="Layer 1" xmlns="http://www.w3.org/2000/svg" viewBox="0 0 715.72 120.5"><defs><style>.cls-1{fill:#d8d8d8;}.cls-2{fill:#00aeef;}</style></defs><title>2017-logo-update-outlines</title><path class="cls-1" d="M20.5,19.55l13,48.7,16-48.7H65.1l16,48.7,13-48.7h20.5L92.1,94.95h-20L57.3,51.25,42.5,94.95h-20L0,19.55H20.5Z"/><path class="cls-1" d="M117.5,57.25A38.85,38.85,0,0,1,142.35,20.5a47.93,47.93,0,0,1,33.65,0,39.78,39.78,0,0,1,13.25,8.45A38.68,38.68,0,0,1,197.9,41.6,39.4,39.4,0,0,1,201,57.25a39.4,39.4,0,0,1-3.1,15.65,38.67,38.67,0,0,1-8.65,12.65A39.73,39.73,0,0,1,176,94a47.92,47.92,0,0,1-33.65,0A39,39,0,0,1,117.5,57.25Zm20.5,0a20.07,20.07,0,0,0,1.7,8.3A20.76,20.76,0,0,0,151.05,76.5a21.81,21.81,0,0,0,23.1-4.35,20.6,20.6,0,0,0,4.65-6.6,21.11,21.11,0,0,0,0-16.6,20.64,20.64,0,0,0-4.65-6.6A22,22,0,0,0,151.05,38a20.76,20.76,0,0,0-11.35,11A20.07,20.07,0,0,0,138,57.25Z"/><path class="cls-1" d="M276.1,94.95H251.7l-18.7-29v29H213.4V19.55h30.5a30,30,0,0,1,11,1.85,20.71,20.71,0,0,1,12.35,12.45,25.8,25.8,0,0,1,1.55,9q0,8.6-4.15,14T252.4,64ZM233,53.25h3.7q5.8,0,8.9-2.4a8.21,8.21,0,0,0,3.1-6.9,8.21,8.21,0,0,0-3.1-6.9q-3.1-2.4-8.9-2.4H233v18.6Z"/><path class="cls-1" d="M284.3,19.55h29a34.23,34.23,0,0,1,14.45,3.1,39.41,39.41,0,0,1,11.8,8.25,38.34,38.34,0,0,1,8,12,37,37,0,0,1,0,28.6,38.17,38.17,0,0,1-7.9,12.05,38.92,38.92,0,0,1-11.8,8.3,34.43,34.43,0,0,1-14.55,3.1h-29V19.55Zm19.6,58.8h4.5a24.33,24.33,0,0,0,9.1-1.6,19.43,19.43,0,0,0,6.75-4.4,18.84,18.84,0,0,0,4.2-6.65,23.81,23.81,0,0,0,1.45-8.45,23.2,23.2,0,0,0-1.5-8.4,18.83,18.83,0,0,0-11-11.1,24.08,24.08,0,0,0-9-1.6h-4.5v42.2Z"/><path class="cls-2" d="M452.23,57.25A38.85,38.85,0,0,1,477.08,20.5a47.93,47.93,0,0,1,33.65,0A39.75,39.75,0,0,1,524,28.95a38.69,38.69,0,0,1,8.65,12.65,39.41,39.41,0,0,1,3.1,15.65,39.41,39.41,0,0,1-3.1,15.65A38.67,38.67,0,0,1,524,85.55,39.73,39.73,0,0,1,510.73,94a47.93,47.93,0,0,1-33.65,0A39,39,0,0,1,452.23,57.25Zm20.5,0a20.06,20.06,0,0,0,1.7,8.3,20.75,20.75,0,0,0,11.35,11,21.81,21.81,0,0,0,23.1-4.35,20.6,20.6,0,0,0,4.65-6.6,21.11,21.11,0,0,0,0-16.6,20.62,20.62,0,0,0-4.65-6.6A22,22,0,0,0,485.77,38a20.75,20.75,0,0,0-11.35,11A20.07,20.07,0,0,0,472.73,57.25Z"/><path class="cls-2" d="M548.12,94.95V19.55h19.6l36.2,46.1V19.55h19.5v75.4h-19.5l-36.2-46.1v46.1h-19.6Z"/><path class="cls-2" d="M677.32,52.75h38.9a108.15,108.15,0,0,1-.5,10.9,38.66,38.66,0,0,1-2,9.1A36.28,36.28,0,0,1,708,83.2a33.31,33.31,0,0,1-8.45,7.6,39.69,39.69,0,0,1-10.65,4.65,45.74,45.74,0,0,1-12.2,1.6,42.86,42.86,0,0,1-16-2.9A36.21,36.21,0,0,1,648.22,86a36.9,36.9,0,0,1-8.1-12.6,43.89,43.89,0,0,1-2.9-16.25A44.31,44.31,0,0,1,640.07,41a35.43,35.43,0,0,1,8.1-12.55,36.83,36.83,0,0,1,12.65-8.1,44.89,44.89,0,0,1,16.5-2.9,40.91,40.91,0,0,1,20.7,5.1q8.9,5.1,14.1,15.8L693.52,46q-2.6-6.2-6.75-8.9a16.94,16.94,0,0,0-9.45-2.7,19,19,0,0,0-8,1.65,17.36,17.36,0,0,0-6.15,4.7,22.56,22.56,0,0,0-4,7.35,29.92,29.92,0,0,0-1.45,9.6,30.37,30.37,0,0,0,1.25,8.9,20.08,20.08,0,0,0,3.75,7.1,16.91,16.91,0,0,0,6.2,4.65,21,21,0,0,0,8.6,1.65,23.83,23.83,0,0,0,5.6-.65A14.77,14.77,0,0,0,688,77.3a11.94,11.94,0,0,0,3.55-3.75,15,15,0,0,0,1.9-5.6h-16.1V52.75Z"/><path class="cls-1" d="M399.94,27.72a15.09,15.09,0,0,1,9.3-2.7,25.52,25.52,0,0,1,9.3,1.88,36.42,36.42,0,0,1,9.6,5.78l11.7-23a77.54,77.54,0,0,0-17.55-6.83A71.3,71.3,0,0,0,404.74.57a46.5,46.5,0,0,0-16.28,2.7,34.76,34.76,0,0,0-12.3,7.58,33.82,33.82,0,0,0-7.8,11.7,40.06,40.06,0,0,0-2.77,15.22q0,8.4,2.63,13.88a26.81,26.81,0,0,0,6.9,9.08,34.45,34.45,0,0,0,7.12,4.61l14.46-33.08A8.57,8.57,0,0,1,399.94,27.72Z"/><path class="cls-2" d="M437.81,60.64a35.09,35.09,0,0,0-9.68-7.83l-15,34.31a11,11,0,0,1-3.08,4.64q-3.53,3.3-10.73,3.3a31.36,31.36,0,0,1-12.75-2.85,51,51,0,0,1-13-8.7l-12.6,23.7A68.12,68.12,0,0,0,400.69,120a57.49,57.49,0,0,0,18.52-2.78,39.42,39.42,0,0,0,13.8-7.8,32.85,32.85,0,0,0,8.55-12.08,40.73,40.73,0,0,0,2.92-15.75Q444.49,68.67,437.81,60.64Z"/><path class="cls-2" d="M392,47.87h11.57V51h-4V74.26h-3.49V51H392V47.87Z"/><path class="cls-1" d="M418.95,61.72q0,7-1.56,9.93a5.43,5.43,0,0,1-5.21,2.94,5.56,5.56,0,0,1-5.42-3.16q-1.56-3.09-1.55-11,0-7,1.54-10A5.47,5.47,0,0,1,412,47.53a5.62,5.62,0,0,1,4.92,2.27,10.78,10.78,0,0,1,1.54,4.32A45.07,45.07,0,0,1,418.95,61.72Zm-3.73.38q0-6.85-.62-9.09t-2.51-2.26a2.52,2.52,0,0,0-2.53,2.07q-0.62,2.08-.62,8.37a33.29,33.29,0,0,0,.65,8,2.55,2.55,0,0,0,2.5,2.12,2.49,2.49,0,0,0,2.46-2A26.23,26.23,0,0,0,415.22,62.09Z"/></svg>