<?xml version="1.0" encoding="utf-8"?>
<!-- Generator: Adobe Illustrator 22.0.0, SVG Export Plug-In . SVG Version: 6.00 Build 0)  -->
<svg version="1.1" id="Layer_1" xmlns="http://www.w3.org/2000/svg" xmlns:xlink="http://www.w3.org/1999/xlink" x="0px" y="0px"
	 viewBox="0 0 564 564" style="enable-background:new 0 0 564 564;" xml:space="preserve">
<style type="text/css">
	.st0{fill:#1B3449;}
	.st1{fill:#FFFFFF;}
</style>
<g>
	<circle class="st0" cx="282" cy="282" r="282"/>
	<rect x="157" y="132" class="st1" width="250" height="300"/>
	<rect x="207" y="150" class="st0" width="150" height="120"/>
	<rect x="207" y="294" class="st0" width="150" height="120"/>
	<rect x="172" y="267" class="st0" width="20" height="30"/>
	<rect x="172" y="307" class="st0" width="20" height="30"/>
	<rect x="172" y="347" class="st0" width="20" height="30"/>
	<rect x="172" y="387" class="st0" width="20" height="30"/>
	<rect x="172" y="427" class="st0" width="20" height="30"/>
	<rect x="172" y="227" class="st0" width="20" height="30"/>
	<rect x="172" y="187" class="st0" width="20" height="30"/>
	<rect x="172" y="147" class="st0" width="20" height="30"/>
	<rect x="172" y="107" class="st0" width="20" height="30"/>
	<rect x="372" y="267" class="st0" width="20" height="30"/>
	<rect x="372" y="307" class="st0" width="20" height="30"/>
	<rect x="372" y="347" class="st0" width="20" height="30"/>
	<rect x="372" y="387" class="st0" width="20" height="30"/>
	<rect x="372" y="427" class="st0" width="20" height="30"/>
	<rect x="372" y="227" class="st0" width="20" height="30"/>
	<rect x="372" y="187" class="st0" width="20" height="30"/>
	<rect x="372" y="147" class="st0" width="20" height="30"/>
	<rect x="372" y="107" class="st0" width="20" height="30"/>
</g>
</svg>
