<?xml version="1.0" encoding="utf-8"?>
<!-- Generator: Adobe Illustrator 22.0.0, SVG Export Plug-In . SVG Version: 6.00 Build 0)  -->
<svg version="1.1" id="Layer_1" xmlns="http://www.w3.org/2000/svg" xmlns:xlink="http://www.w3.org/1999/xlink" x="0px" y="0px"
	 viewBox="0 0 564 564" style="enable-background:new 0 0 564 564;" xml:space="preserve">
<style type="text/css">
	.st0{fill:#1B3449;}
	.st1{fill-rule:evenodd;clip-rule:evenodd;fill:#FFFFFF;}
	.st2{fill-rule:evenodd;clip-rule:evenodd;fill:#1B3449;}
	.st3{fill:#FFFFFF;}
</style>
<g>
	<circle class="st0" cx="282" cy="282" r="282"/>
	<g>
		<path class="st1" d="M282.8,487.3c-54.3,0-94.5-20.6-94.5-69.1c0-48.4,32.5-67.4,32.5-83c0-15.6-14-43.4-3.3-67.8
			c10.7-24.4,53.4-25.7,64.5-25.7c11.1,0,53.9,1.3,64.5,25.7c10.7,24.4-3.3,52.2-3.3,67.8c0,15.6,32.5,34.5,32.5,83
			C375.7,466.6,337.1,487.3,282.8,487.3z"/>
		<circle class="st2" cx="282" cy="307.7" r="24.2"/>
		<path class="st0" d="M302.2,428.4h-40.3c-2.2,0-4-1.8-4-4v-4.9c0-2.2,1.8-4,4-4h40.3c2.2,0,4,1.8,4,4v4.9
			C306.2,426.6,304.4,428.4,302.2,428.4z"/>
		<rect x="267.5" y="147.6" class="st3" width="29" height="128.8"/>
		<path class="st3" d="M296.7,74.7h-29.5c-4.9,0-8.6,5.4-7.7,11.3l5.8,37.7h0l0.9,5.6l1.8,8.4h28l1.6-7.6l0-0.3c0,0,0,0,0,0l0.9-6
			l4.5-29.3l1.3-8.4C305.3,80.2,301.6,74.7,296.7,74.7z"/>
		<g>
			<path class="st3" d="M319.9,96.2l-8.6-1.5c-1.6-0.3-2.7-1.8-2.4-3.4l0.7-4c0.3-1.6,1.8-2.7,3.4-2.4l8.6,1.5
				c1.6,0.3,2.7,1.8,2.4,3.4l-0.7,4C323.1,95.4,321.5,96.5,319.9,96.2z"/>
			<path class="st3" d="M316.4,115.9l-8.6-1.5c-1.6-0.3-2.7-1.8-2.4-3.4l0.7-4c0.3-1.6,1.8-2.7,3.4-2.4l8.6,1.5
				c1.6,0.3,2.7,1.8,2.4,3.4l-0.7,4C319.6,115.1,318.1,116.2,316.4,115.9z"/>
			<path class="st3" d="M313,135.6l-8.6-1.5c-1.6-0.3-2.7-1.8-2.4-3.4l0.7-4c0.3-1.6,1.8-2.7,3.4-2.4l8.6,1.5
				c1.6,0.3,2.7,1.8,2.4,3.4l-0.7,4C316.1,134.8,314.6,135.9,313,135.6z"/>
		</g>
		<g>
			<path class="st3" d="M244.1,96.2l8.6-1.5c1.6-0.3,2.7-1.8,2.4-3.4l-0.7-4c-0.3-1.6-1.8-2.7-3.4-2.4l-8.6,1.5
				c-1.6,0.3-2.7,1.8-2.4,3.4l0.7,4C240.9,95.4,242.5,96.5,244.1,96.2z"/>
			<path class="st3" d="M247.6,115.9l8.6-1.5c1.6-0.3,2.7-1.8,2.4-3.4l-0.7-4c-0.3-1.6-1.8-2.7-3.4-2.4l-8.6,1.5
				c-1.6,0.3-2.7,1.8-2.4,3.4l0.7,4C244.4,115.1,245.9,116.2,247.6,115.9z"/>
			<path class="st3" d="M251,135.6l8.6-1.5c1.6-0.3,2.7-1.8,2.4-3.4l-0.7-4c-0.3-1.6-1.8-2.7-3.4-2.4l-8.6,1.5
				c-1.6,0.3-2.7,1.8-2.4,3.4l0.7,4C247.9,134.8,249.4,135.9,251,135.6z"/>
		</g>
		<g>
			<path class="st0" d="M296.7,74.7c4.9,0,8.6,5.4,7.7,11.3l-1.3,8.4l-4.5,29.3l-0.9,6c0,0,0,0,0,0l0,0.3l-1.6,7.6h-28l-1.8-8.4
				l-0.9-5.6h0L259.6,86c-0.9-5.9,2.8-11.3,7.7-11.3H296.7 M296.7,64.7h-29.5c-4.9,0-9.7,2.2-13,6.1c-3.9,4.5-5.5,10.6-4.6,16.7
				l4,26.2l1.7,11.5l0.9,5.6l0,0.3l0.1,0.3l1.8,8.4l1.7,7.9h8.1h28h8.1l1.7-7.9l1.6-7.6l0.1-0.3l0-0.3l0,0l0,0l0-0.3l0.9-6L313,96
				l1.3-8.4c0.9-6.1-0.7-12.2-4.6-16.7C306.4,67,301.6,64.7,296.7,64.7L296.7,64.7z"/>
		</g>
	</g>
</g>
</svg>
