<?xml version="1.0" encoding="utf-8"?>
<!-- Generator: Adobe Illustrator 22.0.0, SVG Export Plug-In . SVG Version: 6.00 Build 0)  -->
<svg version="1.1" id="Layer_1" xmlns="http://www.w3.org/2000/svg" xmlns:xlink="http://www.w3.org/1999/xlink" x="0px" y="0px"
	 viewBox="0 0 564 564" style="enable-background:new 0 0 564 564;" xml:space="preserve">
<style type="text/css">
	.st0{fill:#1B3449;}
	.st1{fill:none;}
	.st2{fill:#FFFFFF;}
</style>
<g>
	<circle class="st0" cx="282" cy="282" r="282"/>
</g>
<path class="st1" d="M427.7,406c-1.6,0-3.2-0.1-4.7-0.4v0.4H427.7z"/>
<g>
	<path class="st2" d="M443.4,276.2c0.3,4.4,0.5,8.8,0.5,13.3c0,30.9-7.6,59.9-20.8,85.1v31c1.5,0.2,3.1,0.4,4.7,0.4H440
		c16.5,0,30-13.5,30-30v-70C470,290.6,458.3,277.9,443.4,276.2z"/>
	<path class="st2" d="M282,116c-85,0-154.9,70.6-161.4,160h-1.9c-13.6,0-24.7,11.1-24.7,24.7v80.6c0,13.6,11.1,24.7,24.7,24.7h5.1
		H141v-31.4v-68.4c0-0.4-0.1-0.7-0.1-1.1V276h-0.1h-0.1C147,197.7,208,136,282,136c74.1,0,135.1,61.8,141.3,140.3
		c1.4-0.2,2.9-0.3,4.4-0.3c-1.5,0-2.9,0.1-4.4,0.3c0.3,4.3,0.5,8.7,0.5,13.2c0,0,0,0,0,0c0,0,0,0,0,0c0-4.4-0.2-8.8-0.5-13.2
		c-0.1,0-0.2,0-0.3,0v29.9c0,0,0,0,0,0c0,0,0,0,0,0v68.4c13.3-25.2,20.8-54.2,20.8-85.1c0-4.5-0.2-8.9-0.5-13.3
		c-1.1-0.1-2.2-0.2-3.4-0.2h0.1c1.1,0,2.3,0.1,3.4,0.2C437,186.7,367.1,116,282,116z M112.1,361L112.1,361l-0.1-40h0.1V361z"/>
</g>
<g>
	<path class="st2" d="M157.5,400.2c-2.4,2-5.1,3.6-8.1,4.6c0.1,0.4,0.2,0.8,0.3,1.2h-0.1c1.4,4.6,5.7,8,10.8,8
		c2.5,0,4.9-0.9,6.8-2.3c1.9-1.4,3.3-3.4,4-5.7h-9C160.6,404.1,159,402.2,157.5,400.2z"/>
	<path class="st2" d="M149.1,388.5v14.2c0,0.7,0.1,1.4,0.2,2.1c3-1,5.8-2.6,8.1-4.6C154.5,396.4,151.7,392.5,149.1,388.5z"/>
	<path class="st2" d="M171.7,385.9V280.3c0-1.7-0.4-3.3-1.1-4.8c-1.8-3.8-5.7-6.5-10.2-6.5s-8.4,2.7-10.2,6.5
		c-0.3,0.6-0.5,1.2-0.7,1.8c9.8,3.3,16.8,12.6,16.8,23.4c0-10.8-7-20-16.8-23.4c-0.3,1-0.4,1.9-0.4,3v62.9v0v45.2
		c2.6,4,5.4,8,8.3,11.7c2.7-2.2,4.9-5,6.5-8.1c-1.5,3.2-3.7,6-6.4,8.2c1.5,2,3.1,3.9,4.7,5.8h9.1c0.3-1,0.5-2.2,0.5-3.3L171.7,385.9
		L171.7,385.9z"/>
</g>
<path class="st2" d="M414.8,278.9c-0.1-1.2-0.5-2.4-1-3.4c-1.8-3.8-5.7-6.5-10.2-6.5s-8.4,2.7-10.2,6.5c-0.7,1.5-1.1,3.1-1.1,4.8
	v105.6c1.9-2.6,3.7-5.2,5.5-7.8c0,0,0,0,0,0c0.5,8.1,4.3,15.3,10,20.3l0,0c-5.8-5-9.5-12.2-10-20.2c-1.8,2.7-3.6,5.3-5.5,7.8v16.8
	c0,1.1,0.2,2.3,0.5,3.3h9.1c2.1-2.5,4.1-5,6-7.5l0,0c-1.9,2.6-3.9,5.1-6,7.5h0h-9.1c0.7,2.3,2.1,4.3,4,5.7c1.9,1.4,4.2,2.3,6.8,2.3
	c5.1,0,9.4-3.4,10.8-8h0c0.3-0.9,0.4-1.9,0.5-2.9c0,0-0.1,0-0.1-0.1c0-0.1,0-0.3,0-0.3v-14.1c0-0.1,0.1-0.1,0.1-0.2v-45.1v-0.1
	v-62.8C414.9,279.8,414.8,279.4,414.8,278.9z"/>
</svg>
