<?xml version="1.0" encoding="utf-8"?>
<!-- Generator: Adobe Illustrator 22.0.0, SVG Export Plug-In . SVG Version: 6.00 Build 0)  -->
<svg version="1.1" id="Layer_1" xmlns="http://www.w3.org/2000/svg" xmlns:xlink="http://www.w3.org/1999/xlink" x="0px" y="0px"
	 viewBox="0 0 564 564" style="enable-background:new 0 0 564 564;" xml:space="preserve">
<style type="text/css">
	.st0{fill:#1B3449;}
	.st1{fill:#FFFFFF;}
</style>
<g>
	<circle class="st0" cx="282" cy="282" r="282"/>
	<path class="st1" d="M123,347h-16c-6.6,0-12-5.4-12-12V229c0-6.6,5.4-12,12-12h16c6.6,0,12,5.4,12,12v106
		C135,341.6,129.6,347,123,347z"/>
	<path class="st1" d="M173,409.5h-16c-6.6,0-12-5.4-12-12v-231c0-6.6,5.4-12,12-12h16c6.6,0,12,5.4,12,12v231
		C185,404.1,179.6,409.5,173,409.5z"/>
	<path class="st1" d="M408.5,409.5h-16c-6.6,0-12-5.4-12-12v-231c0-6.6,5.4-12,12-12h16c6.6,0,12,5.4,12,12v231
		C420.5,404.1,415.1,409.5,408.5,409.5z"/>
	<path class="st1" d="M459,347h-16c-6.6,0-12-5.4-12-12V229c0-6.6,5.4-12,12-12h16c6.6,0,12,5.4,12,12v106
		C471,341.6,465.6,347,459,347z"/>
	<rect x="195" y="262" class="st1" width="175" height="40"/>
	<rect x="73" y="262" class="st1" width="12" height="40"/>
	<rect x="481" y="262" class="st1" width="12" height="40"/>
</g>
</svg>
